<mxfile host="app.diagrams.net" modified="2024-06-17T14:36:17.927Z" agent="Mozilla/5.0 (Windows NT 10.0; Win64; x64) AppleWebKit/537.36 (KHTML, like Gecko) Chrome/122.0.0.0 YaBrowser/24.4.0.0 Safari/537.36" etag="FXq4eZ3ZYx8O2qx1l3NP" version="24.5.4" type="device">
  <diagram name="Страница — 1" id="nu__pl1KpKfWhP39RQGj">
    <mxGraphModel dx="6154" dy="3177" grid="1" gridSize="10" guides="1" tooltips="1" connect="1" arrows="1" fold="1" page="1" pageScale="1" pageWidth="1169" pageHeight="827" math="0" shadow="0">
      <root>
        <mxCell id="0" />
        <mxCell id="1" parent="0" />
        <mxCell id="5qImYblmfIxGDf4tknQ0-1" value="" style="rounded=0;whiteSpace=wrap;html=1;fillColor=#d5e8d4;strokeColor=#82b366;" vertex="1" parent="1">
          <mxGeometry x="-1140" y="-1580" width="1220" height="1820" as="geometry" />
        </mxCell>
        <mxCell id="5qImYblmfIxGDf4tknQ0-2" value="" style="rounded=0;whiteSpace=wrap;html=1;fillColor=#dae8fc;strokeColor=#6c8ebf;" vertex="1" parent="1">
          <mxGeometry x="-1460" y="-1430" width="240" height="1420" as="geometry" />
        </mxCell>
        <UserObject label="" plantUmlData="{&#xa;  &quot;data&quot;: &quot;@startuml\nleft to right direction\nskinparam packageBackgroundColor LightBlue\nskinparam usecaseBackgroundColor LightGreen\nskinparam actorBorderColor black\n\nactor PotentialCustomer as \&quot;Потенциальный заказчик\&quot;\nactor Manager as \&quot;Менеджер\&quot;\nactor TechnicalStaff as \&quot;Технический персонал\&quot;\nactor SystemAdmin as \&quot;Администратор\&quot;\n\nrectangle \&quot;Система контроля и учета оборудования\&quot; {\n    usecase (Регистрация оборудования через графический интерфейс) as UC1\n    usecase (Регистрация оборудования через REST запросы) as UC2\n    usecase (Отслеживание местоположения и состояния) as UC3\n    usecase (Отчеты и аналитика использования) as UC4\n    usecase (Изменение параметров оборудования) as UC5\n    usecase (Удаление оборудования) as UC6\n\n    PotentialCustomer -- (UC1)\n    PotentialCustomer -- (UC2)\n    Manager -- (UC1)\n    Manager -- (UC3)\n    Manager -- (UC4)\n    Manager -- (UC5)\n    TechnicalStaff -- (UC3)\n    TechnicalStaff -- (UC6)\n    SystemAdmin -- (UC6)\n\n    UC1 --&gt; (Регистрация оборудования при помощи графического интерфейса)\n    UC2 --&gt; (Регистрация оборудования при помощи REST запросов)\n    UC3 --&gt; (Отслеживание местоположения и состояния оборудования)\n    UC4 --&gt; (Отчеты и аналитика по использованию оборудования)\n    UC5 --&gt; (Изменение параметров оборудования)\n    UC6 --&gt; (Удаление оборудования из системы)\n\n    usecase (Создание регулярных отчетов) as UC7\n    usecase (Поиск истории изменений) as UC8\n    usecase (Управление доступом) as UC9\n\n    Manager -- (UC7)\n    Manager -- (UC8)\n    Manager -- (UC9)\n\n    UC7 ..&gt; (Генерация регулярных отчетов)\n    UC8 ..&gt; (Просмотр истории изменений)\n    UC9 ..&gt; (Назначение прав доступа)\n\n    usecase (Интеграция с другими системами) as UC10\n    usecase (Обновление по расписанию) as UC11\n\n    SystemAdmin -- (UC10)\n    SystemAdmin -- (UC11)\n\n    UC10 --&gt; (Интеграция с CRM)\n    UC10 --&gt; (Интеграция с ERP)\n    UC11 --&gt; (Автоматическое обновление ПО)\n}\n\nrectangle \&quot;Системные актеры\&quot; {\n    actor PotentialCustomer as PC\n    actor Manager as M\n    actor TechnicalStaff as TS\n    actor SystemAdmin as SA\n}\n\nrectangle \&quot;Основные функции системы\&quot; {\n    usecase (Регистрация оборудования) as UC_Reg\n    usecase (Отслеживание) as UC_Track\n    usecase (Отчеты и аналитика) as UC_Reports\n    usecase (Изменение параметров) as UC_Edit\n    usecase (Удаление оборудования) as UC_Delete\n}\n\nPC --&gt; UC_Reg\nM --&gt; UC_Reg\nM --&gt; UC_Track\nM --&gt; UC_Reports\nM --&gt; UC_Edit\nTS --&gt; UC_Track\nTS --&gt; UC_Delete\nSA --&gt; UC_Delete\n\nUC_Track ..&gt; (Отслеживание местоположения и состояния оборудования)\nUC_Reports ..&gt; (Отчеты и аналитика по использованию оборудования)\n\n@enduml\n&quot;,&#xa;  &quot;format&quot;: &quot;svg&quot;&#xa;}" id="5qImYblmfIxGDf4tknQ0-3">
          <mxCell style="shape=image;noLabel=1;verticalAlign=top;aspect=fixed;imageAspect=0;image=data:image/svg+xml,PD94bWwgdmVyc2lvbj0iMS4wIiBlbmNvZGluZz0idXMtYXNjaWkiIHN0YW5kYWxvbmU9Im5vIj8+PHN2ZyB4bWxucz0iaHR0cDovL3d3dy53My5vcmcvMjAwMC9zdmciIHhtbG5zOnhsaW5rPSJodHRwOi8vd3d3LnczLm9yZy8xOTk5L3hsaW5rIiBjb250ZW50U3R5bGVUeXBlPSJ0ZXh0L2NzcyIgaGVpZ2h0PSIxNjIxcHgiIHByZXNlcnZlQXNwZWN0UmF0aW89Im5vbmUiIHN0eWxlPSJ3aWR0aDoxMTM0cHg7aGVpZ2h0OjE2MjFweDtiYWNrZ3JvdW5kOiNGRkZGRkY7IiB2ZXJzaW9uPSIxLjEiIHZpZXdCb3g9IjAgMCAxMTM0IDE2MjEiIHdpZHRoPSIxMTM0cHgiIHpvb21BbmRQYW49Im1hZ25pZnkiPjxkZWZzLz48Zz48IS0tY2x1c3RlciA/Pz8/Pz8/ID8/Pz8/Pz8/ID8gPz8/Pz8gPz8/Pz8/Pz8/Pz8/LS0+PGcgaWQ9ImNsdXN0ZXJfJiMxMDU3OyYjMTA4MDsmIzEwODk7JiMxMDkwOyYjMTA3NzsmIzEwODQ7JiMxMDcyOyAmIzEwODI7JiMxMDg2OyYjMTA4NTsmIzEwOTA7JiMxMDg4OyYjMTA4NjsmIzEwODM7JiMxMTAzOyAmIzEwODA7ICYjMTA5MTsmIzEwOTU7JiMxMDc3OyYjMTA5MDsmIzEwNzI7ICYjMTA4NjsmIzEwNzM7JiMxMDg2OyYjMTA4ODsmIzEwOTE7JiMxMDc2OyYjMTA4NjsmIzEwNzQ7JiMxMDcyOyYjMTA4NTsmIzEwODA7JiMxMTAzOyI+PHJlY3QgZmlsbD0iI0FERDhFNiIgaGVpZ2h0PSIxMTQ0IiByeD0iMi41IiByeT0iMi41IiBzdHlsZT0ic3Ryb2tlOiMxODE4MTg7c3Ryb2tlLXdpZHRoOjEuMDsiIHdpZHRoPSI5MjMiIHg9IjIwNSIgeT0iNyIvPjx0ZXh0IGZpbGw9IiMwMDAwMDAiIGZvbnQtZmFtaWx5PSJzYW5zLXNlcmlmIiBmb250LXNpemU9IjE0IiBmb250LXdlaWdodD0iYm9sZCIgbGVuZ3RoQWRqdXN0PSJzcGFjaW5nIiB0ZXh0TGVuZ3RoPSIyNjAiIHg9IjUzNi41IiB5PSIyMi4yMzQ0Ij4mIzEwNTc7JiMxMDgwOyYjMTA4OTsmIzEwOTA7JiMxMDc3OyYjMTA4NDsmIzEwNzI7ICYjMTA4MjsmIzEwODY7JiMxMDg1OyYjMTA5MDsmIzEwODg7JiMxMDg2OyYjMTA4MzsmIzExMDM7ICYjMTA4MDsgJiMxMDkxOyYjMTA5NTsmIzEwNzc7JiMxMDkwOyYjMTA3MjsgJiMxMDg2OyYjMTA3MzsmIzEwODY7JiMxMDg4OyYjMTA5MTsmIzEwNzY7JiMxMDg2OyYjMTA3NDsmIzEwNzI7JiMxMDg1OyYjMTA4MDsmIzExMDM7PC90ZXh0PjwvZz48IS0tY2x1c3RlciA/Pz8/Pz8/Pz8gPz8/Pz8/LS0+PGcgaWQ9ImNsdXN0ZXJfJiMxMDU3OyYjMTA4MDsmIzEwODk7JiMxMDkwOyYjMTA3NzsmIzEwODQ7JiMxMDg1OyYjMTA5OTsmIzEwNzc7ICYjMTA3MjsmIzEwODI7JiMxMDkwOyYjMTA3NzsmIzEwODg7JiMxMDk5OyI+PHJlY3QgZmlsbD0iI0FERDhFNiIgaGVpZ2h0PSI0NTMiIHJ4PSIyLjUiIHJ5PSIyLjUiIHN0eWxlPSJzdHJva2U6IzE4MTgxODtzdHJva2Utd2lkdGg6MS4wOyIgd2lkdGg9IjE1MiIgeD0iNy41IiB5PSIxMTYyIi8+PHRleHQgZmlsbD0iIzAwMDAwMCIgZm9udC1mYW1pbHk9InNhbnMtc2VyaWYiIGZvbnQtc2l6ZT0iMTQiIGZvbnQtd2VpZ2h0PSJib2xkIiBsZW5ndGhBZGp1c3Q9InNwYWNpbmciIHRleHRMZW5ndGg9IjExMiIgeD0iMjcuNSIgeT0iMTE3Ny4yMzQ0Ij4mIzEwNTc7JiMxMDgwOyYjMTA4OTsmIzEwOTA7JiMxMDc3OyYjMTA4NDsmIzEwODU7JiMxMDk5OyYjMTA3NzsgJiMxMDcyOyYjMTA4MjsmIzEwOTA7JiMxMDc3OyYjMTA4ODsmIzEwOTk7PC90ZXh0PjwvZz48IS0tY2x1c3RlciA/Pz8/Pz8/PyA/Pz8/Pz8/ID8/Pz8/Pz8tLT48ZyBpZD0iY2x1c3Rlcl8mIzEwNTQ7JiMxMDg5OyYjMTA4NTsmIzEwODY7JiMxMDc0OyYjMTA4NTsmIzEwOTk7JiMxMDc3OyAmIzEwOTI7JiMxMDkxOyYjMTA4NTsmIzEwODI7JiMxMDk0OyYjMTA4MDsmIzEwODA7ICYjMTA4OTsmIzEwODA7JiMxMDg5OyYjMTA5MDsmIzEwNzc7JiMxMDg0OyYjMTA5OTsiPjxyZWN0IGZpbGw9IiNBREQ4RTYiIGhlaWdodD0iMzg2IiByeD0iMi41IiByeT0iMi41IiBzdHlsZT0ic3Ryb2tlOiMxODE4MTg7c3Ryb2tlLXdpZHRoOjEuMDsiIHdpZHRoPSIyMzMiIHg9IjMwMCIgeT0iMTE3NSIvPjx0ZXh0IGZpbGw9IiMwMDAwMDAiIGZvbnQtZmFtaWx5PSJzYW5zLXNlcmlmIiBmb250LXNpemU9IjE0IiBmb250LXdlaWdodD0iYm9sZCIgbGVuZ3RoQWRqdXN0PSJzcGFjaW5nIiB0ZXh0TGVuZ3RoPSIxNjkiIHg9IjMzMiIgeT0iMTE5MC4yMzQ0Ij4mIzEwNTQ7JiMxMDg5OyYjMTA4NTsmIzEwODY7JiMxMDc0OyYjMTA4NTsmIzEwOTk7JiMxMDc3OyAmIzEwOTI7JiMxMDkxOyYjMTA4NTsmIzEwODI7JiMxMDk0OyYjMTA4MDsmIzEwODA7ICYjMTA4OTsmIzEwODA7JiMxMDg5OyYjMTA5MDsmIzEwNzc7JiMxMDg0OyYjMTA5OTs8L3RleHQ+PC9nPjxnIGlkPSJlbGVtX1VDMSI+PGVsbGlwc2UgY3g9IjQxNi42NzY3IiBjeT0iMjAwLjAzNTMiIGZpbGw9IiM5MEVFOTAiIHJ4PSIxOTUuNjc2NyIgcnk9IjQxLjUzNTMiIHN0eWxlPSJzdHJva2U6IzE4MTgxODtzdHJva2Utd2lkdGg6MC41OyIvPjx0ZXh0IGZpbGw9IiMwMDAwMDAiIGZvbnQtZmFtaWx5PSJzYW5zLXNlcmlmIiBmb250LXNpemU9IjE0IiBsZW5ndGhBZGp1c3Q9InNwYWNpbmciIHRleHRMZW5ndGg9IjM2NiIgeD0iMjMzLjY3NjciIHk9IjIwMy43Nzc1Ij4mIzEwNTY7JiMxMDc3OyYjMTA3NTsmIzEwODA7JiMxMDg5OyYjMTA5MDsmIzEwODg7JiMxMDcyOyYjMTA5NDsmIzEwODA7JiMxMTAzOyAmIzEwODY7JiMxMDczOyYjMTA4NjsmIzEwODg7JiMxMDkxOyYjMTA3NjsmIzEwODY7JiMxMDc0OyYjMTA3MjsmIzEwODU7JiMxMDgwOyYjMTEwMzsgJiMxMDk1OyYjMTA3NzsmIzEwODg7JiMxMDc3OyYjMTA3OTsgJiMxMDc1OyYjMTA4ODsmIzEwNzI7JiMxMDkyOyYjMTA4MDsmIzEwOTU7JiMxMDc3OyYjMTA4OTsmIzEwODI7JiMxMDgwOyYjMTA4MTsgJiMxMDgwOyYjMTA4NTsmIzEwOTA7JiMxMDc3OyYjMTA4ODsmIzEwOTI7JiMxMDc3OyYjMTA4MTsmIzEwODk7PC90ZXh0PjwvZz48ZyBpZD0iZWxlbV9VQzIiPjxlbGxpcHNlIGN4PSI0MTYuNDIxIiBjeT0iODQuMTg0MiIgZmlsbD0iIzkwRUU5MCIgcng9IjE2My45MjEiIHJ5PSIzNS4xODQyIiBzdHlsZT0ic3Ryb2tlOiMxODE4MTg7c3Ryb2tlLXdpZHRoOjAuNTsiLz48dGV4dCBmaWxsPSIjMDAwMDAwIiBmb250LWZhbWlseT0ic2Fucy1zZXJpZiIgZm9udC1zaXplPSIxNCIgbGVuZ3RoQWRqdXN0PSJzcGFjaW5nIiB0ZXh0TGVuZ3RoPSIzMDEiIHg9IjI2NS45MjEiIHk9Ijg3LjkyNjQiPiYjMTA1NjsmIzEwNzc7JiMxMDc1OyYjMTA4MDsmIzEwODk7JiMxMDkwOyYjMTA4ODsmIzEwNzI7JiMxMDk0OyYjMTA4MDsmIzExMDM7ICYjMTA4NjsmIzEwNzM7JiMxMDg2OyYjMTA4ODsmIzEwOTE7JiMxMDc2OyYjMTA4NjsmIzEwNzQ7JiMxMDcyOyYjMTA4NTsmIzEwODA7JiMxMTAzOyAmIzEwOTU7JiMxMDc3OyYjMTA4ODsmIzEwNzc7JiMxMDc5OyBSRVNUICYjMTA3OTsmIzEwNzI7JiMxMDg3OyYjMTA4ODsmIzEwODY7JiMxMDg5OyYjMTA5OTs8L3RleHQ+PC9nPjxnIGlkPSJlbGVtX1VDMyI+PGVsbGlwc2UgY3g9IjQxNi4zMDkiIGN5PSI3NDEuMTYxOCIgZmlsbD0iIzkwRUU5MCIgcng9IjE1MS4zMDkiIHJ5PSIzMi42NjE4IiBzdHlsZT0ic3Ryb2tlOiMxODE4MTg7c3Ryb2tlLXdpZHRoOjAuNTsiLz48dGV4dCBmaWxsPSIjMDAwMDAwIiBmb250LWZhbWlseT0ic2Fucy1zZXJpZiIgZm9udC1zaXplPSIxNCIgbGVuZ3RoQWRqdXN0PSJzcGFjaW5nIiB0ZXh0TGVuZ3RoPSIyNzUiIHg9IjI3OC44MDkiIHk9Ijc0NC45MDQiPiYjMTA1NDsmIzEwOTA7JiMxMDg5OyYjMTA4MzsmIzEwNzc7JiMxMDc4OyYjMTA4MDsmIzEwNzQ7JiMxMDcyOyYjMTA4NTsmIzEwODA7JiMxMDc3OyAmIzEwODQ7JiMxMDc3OyYjMTA4OTsmIzEwOTA7JiMxMDg2OyYjMTA4NzsmIzEwODY7JiMxMDgzOyYjMTA4NjsmIzEwNzg7JiMxMDc3OyYjMTA4NTsmIzEwODA7JiMxMTAzOyAmIzEwODA7ICYjMTA4OTsmIzEwODY7JiMxMDg5OyYjMTA5MDsmIzEwODY7JiMxMTAzOyYjMTA4NTsmIzEwODA7JiMxMTAzOzwvdGV4dD48L2c+PGcgaWQ9ImVsZW1fVUM0Ij48ZWxsaXBzZSBjeD0iNDE2LjI1NzEiIGN5PSI2NDQuOTUxNCIgZmlsbD0iIzkwRUU5MCIgcng9IjEyNy43NTcxIiByeT0iMjcuOTUxNCIgc3R5bGU9InN0cm9rZTojMTgxODE4O3N0cm9rZS13aWR0aDowLjU7Ii8+PHRleHQgZmlsbD0iIzAwMDAwMCIgZm9udC1mYW1pbHk9InNhbnMtc2VyaWYiIGZvbnQtc2l6ZT0iMTQiIGxlbmd0aEFkanVzdD0ic3BhY2luZyIgdGV4dExlbmd0aD0iMjI2IiB4PSIzMDMuMjU3MSIgeT0iNjQ4LjY5MzYiPiYjMTA1NDsmIzEwOTA7JiMxMDk1OyYjMTA3NzsmIzEwOTA7JiMxMDk5OyAmIzEwODA7ICYjMTA3MjsmIzEwODU7JiMxMDcyOyYjMTA4MzsmIzEwODA7JiMxMDkwOyYjMTA4MDsmIzEwODI7JiMxMDcyOyAmIzEwODA7JiMxMDg5OyYjMTA4NzsmIzEwODY7JiMxMDgzOyYjMTEwMDsmIzEwNzk7JiMxMDg2OyYjMTA3NDsmIzEwNzI7JiMxMDg1OyYjMTA4MDsmIzExMDM7PC90ZXh0PjwvZz48ZyBpZD0iZWxlbV9VQzUiPjxlbGxpcHNlIGN4PSI0MTYuNjQzOSIgY3k9IjM4OS45Mjg4IiBmaWxsPSIjOTBFRTkwIiByeD0iMTMwLjE0MzkiIHJ5PSIyOC40Mjg4IiBzdHlsZT0ic3Ryb2tlOiMxODE4MTg7c3Ryb2tlLXdpZHRoOjAuNTsiLz48dGV4dCBmaWxsPSIjMDAwMDAwIiBmb250LWZhbWlseT0ic2Fucy1zZXJpZiIgZm9udC1zaXplPSIxNCIgbGVuZ3RoQWRqdXN0PSJzcGFjaW5nIiB0ZXh0TGVuZ3RoPSIyMzEiIHg9IjMwMS4xNDM5IiB5PSIzOTMuNjcxIj4mIzEwNDg7JiMxMDc5OyYjMTA4NDsmIzEwNzc7JiMxMDg1OyYjMTA3NzsmIzEwODU7JiMxMDgwOyYjMTA3NzsgJiMxMDg3OyYjMTA3MjsmIzEwODg7JiMxMDcyOyYjMTA4NDsmIzEwNzc7JiMxMDkwOyYjMTA4ODsmIzEwODY7JiMxMDc0OyAmIzEwODY7JiMxMDczOyYjMTA4NjsmIzEwODg7JiMxMDkxOyYjMTA3NjsmIzEwODY7JiMxMDc0OyYjMTA3MjsmIzEwODU7JiMxMDgwOyYjMTEwMzs8L3RleHQ+PC9nPjxnIGlkPSJlbGVtX1VDNiI+PGVsbGlwc2UgY3g9IjQxNi4zMzY0IiBjeT0iODI5LjE2NzMiIGZpbGw9IiM5MEVFOTAiIHJ4PSI5MS4zMzY0IiByeT0iMjAuNjY3MyIgc3R5bGU9InN0cm9rZTojMTgxODE4O3N0cm9rZS13aWR0aDowLjU7Ii8+PHRleHQgZmlsbD0iIzAwMDAwMCIgZm9udC1mYW1pbHk9InNhbnMtc2VyaWYiIGZvbnQtc2l6ZT0iMTQiIGxlbmd0aEFkanVzdD0ic3BhY2luZyIgdGV4dExlbmd0aD0iMTQ4IiB4PSIzNDIuMzM2NCIgeT0iODMyLjkwOTUiPiYjMTA1OTsmIzEwNzY7JiMxMDcyOyYjMTA4MzsmIzEwNzc7JiMxMDg1OyYjMTA4MDsmIzEwNzc7ICYjMTA4NjsmIzEwNzM7JiMxMDg2OyYjMTA4ODsmIzEwOTE7JiMxMDc2OyYjMTA4NjsmIzEwNzQ7JiMxMDcyOyYjMTA4NTsmIzEwODA7JiMxMTAzOzwvdGV4dD48L2c+PGcgaWQ9ImVsZW1fJiMxMDU2OyYjMTA3NzsmIzEwNzU7JiMxMDgwOyYjMTA4OTsmIzEwOTA7JiMxMDg4OyYjMTA3MjsmIzEwOTQ7JiMxMDgwOyYjMTEwMzsgJiMxMDg2OyYjMTA3MzsmIzEwODY7JiMxMDg4OyYjMTA5MTsmIzEwNzY7JiMxMDg2OyYjMTA3NDsmIzEwNzI7JiMxMDg1OyYjMTA4MDsmIzExMDM7ICYjMTA4NzsmIzEwODg7JiMxMDgwOyAmIzEwODc7JiMxMDg2OyYjMTA4NDsmIzEwODY7JiMxMDk3OyYjMTA4MDsgJiMxMDc1OyYjMTA4ODsmIzEwNzI7JiMxMDkyOyYjMTA4MDsmIzEwOTU7JiMxMDc3OyYjMTA4OTsmIzEwODI7JiMxMDg2OyYjMTA3NTsmIzEwODY7ICYjMTA4MDsmIzEwODU7JiMxMDkwOyYjMTA3NzsmIzEwODg7JiMxMDkyOyYjMTA3NzsmIzEwODE7JiMxMDg5OyYjMTA3MjsiPjxlbGxpcHNlIGN4PSI4OTEuNzYxNiIgY3k9IjE5OS44NTIzIiBmaWxsPSIjOTBFRTkwIiByeD0iMjE5Ljc2MTYiIHJ5PSI0Ni4zNTIzIiBzdHlsZT0ic3Ryb2tlOiMxODE4MTg7c3Ryb2tlLXdpZHRoOjAuNTsiLz48dGV4dCBmaWxsPSIjMDAwMDAwIiBmb250LWZhbWlseT0ic2Fucy1zZXJpZiIgZm9udC1zaXplPSIxNCIgbGVuZ3RoQWRqdXN0PSJzcGFjaW5nIiB0ZXh0TGVuZ3RoPSI0MTUiIHg9IjY4NC4yNjE2IiB5PSIyMDMuNTk0NSI+JiMxMDU2OyYjMTA3NzsmIzEwNzU7JiMxMDgwOyYjMTA4OTsmIzEwOTA7JiMxMDg4OyYjMTA3MjsmIzEwOTQ7JiMxMDgwOyYjMTEwMzsgJiMxMDg2OyYjMTA3MzsmIzEwODY7JiMxMDg4OyYjMTA5MTsmIzEwNzY7JiMxMDg2OyYjMTA3NDsmIzEwNzI7JiMxMDg1OyYjMTA4MDsmIzExMDM7ICYjMTA4NzsmIzEwODg7JiMxMDgwOyAmIzEwODc7JiMxMDg2OyYjMTA4NDsmIzEwODY7JiMxMDk3OyYjMTA4MDsgJiMxMDc1OyYjMTA4ODsmIzEwNzI7JiMxMDkyOyYjMTA4MDsmIzEwOTU7JiMxMDc3OyYjMTA4OTsmIzEwODI7JiMxMDg2OyYjMTA3NTsmIzEwODY7ICYjMTA4MDsmIzEwODU7JiMxMDkwOyYjMTA3NzsmIzEwODg7JiMxMDkyOyYjMTA3NzsmIzEwODE7JiMxMDg5OyYjMTA3Mjs8L3RleHQ+PC9nPjxnIGlkPSJlbGVtXyYjMTA1NjsmIzEwNzc7JiMxMDc1OyYjMTA4MDsmIzEwODk7JiMxMDkwOyYjMTA4ODsmIzEwNzI7JiMxMDk0OyYjMTA4MDsmIzExMDM7ICYjMTA4NjsmIzEwNzM7JiMxMDg2OyYjMTA4ODsmIzEwOTE7JiMxMDc2OyYjMTA4NjsmIzEwNzQ7JiMxMDcyOyYjMTA4NTsmIzEwODA7JiMxMTAzOyAmIzEwODc7JiMxMDg4OyYjMTA4MDsgJiMxMDg3OyYjMTA4NjsmIzEwODQ7JiMxMDg2OyYjMTA5NzsmIzEwODA7IFJFU1QgJiMxMDc5OyYjMTA3MjsmIzEwODc7JiMxMDg4OyYjMTA4NjsmIzEwODk7JiMxMDg2OyYjMTA3NDsiPjxlbGxpcHNlIGN4PSI4OTEuOTEiIGN5PSI3OC43ODIiIGZpbGw9IiM5MEVFOTAiIHJ4PSIxODQuNDEiIHJ5PSIzOS4yODIiIHN0eWxlPSJzdHJva2U6IzE4MTgxODtzdHJva2Utd2lkdGg6MC41OyIvPjx0ZXh0IGZpbGw9IiMwMDAwMDAiIGZvbnQtZmFtaWx5PSJzYW5zLXNlcmlmIiBmb250LXNpemU9IjE0IiBsZW5ndGhBZGp1c3Q9InNwYWNpbmciIHRleHRMZW5ndGg9IjM0MyIgeD0iNzIwLjQxIiB5PSI4Mi41MjQyIj4mIzEwNTY7JiMxMDc3OyYjMTA3NTsmIzEwODA7JiMxMDg5OyYjMTA5MDsmIzEwODg7JiMxMDcyOyYjMTA5NDsmIzEwODA7JiMxMTAzOyAmIzEwODY7JiMxMDczOyYjMTA4NjsmIzEwODg7JiMxMDkxOyYjMTA3NjsmIzEwODY7JiMxMDc0OyYjMTA3MjsmIzEwODU7JiMxMDgwOyYjMTEwMzsgJiMxMDg3OyYjMTA4ODsmIzEwODA7ICYjMTA4NzsmIzEwODY7JiMxMDg0OyYjMTA4NjsmIzEwOTc7JiMxMDgwOyBSRVNUICYjMTA3OTsmIzEwNzI7JiMxMDg3OyYjMTA4ODsmIzEwODY7JiMxMDg5OyYjMTA4NjsmIzEwNzQ7PC90ZXh0PjwvZz48ZyBpZD0iZWxlbV8mIzEwNTQ7JiMxMDkwOyYjMTA4OTsmIzEwODM7JiMxMDc3OyYjMTA3ODsmIzEwODA7JiMxMDc0OyYjMTA3MjsmIzEwODU7JiMxMDgwOyYjMTA3NzsgJiMxMDg0OyYjMTA3NzsmIzEwODk7JiMxMDkwOyYjMTA4NjsmIzEwODc7JiMxMDg2OyYjMTA4MzsmIzEwODY7JiMxMDc4OyYjMTA3NzsmIzEwODU7JiMxMDgwOyYjMTEwMzsgJiMxMDgwOyAmIzEwODk7JiMxMDg2OyYjMTA4OTsmIzEwOTA7JiMxMDg2OyYjMTEwMzsmIzEwODU7JiMxMDgwOyYjMTEwMzsgJiMxMDg2OyYjMTA3MzsmIzEwODY7JiMxMDg4OyYjMTA5MTsmIzEwNzY7JiMxMDg2OyYjMTA3NDsmIzEwNzI7JiMxMDg1OyYjMTA4MDsmIzExMDM7Ij48ZWxsaXBzZSBjeD0iODkyLjE3NjciIGN5PSIxMDIzLjAzNTMiIGZpbGw9IiM5MEVFOTAiIHJ4PSIxOTUuNjc2NyIgcnk9IjQxLjUzNTMiIHN0eWxlPSJzdHJva2U6IzE4MTgxODtzdHJva2Utd2lkdGg6MC41OyIvPjx0ZXh0IGZpbGw9IiMwMDAwMDAiIGZvbnQtZmFtaWx5PSJzYW5zLXNlcmlmIiBmb250LXNpemU9IjE0IiBsZW5ndGhBZGp1c3Q9InNwYWNpbmciIHRleHRMZW5ndGg9IjM2NiIgeD0iNzA5LjE3NjciIHk9IjEwMjYuNzc3NSI+JiMxMDU0OyYjMTA5MDsmIzEwODk7JiMxMDgzOyYjMTA3NzsmIzEwNzg7JiMxMDgwOyYjMTA3NDsmIzEwNzI7JiMxMDg1OyYjMTA4MDsmIzEwNzc7ICYjMTA4NDsmIzEwNzc7JiMxMDg5OyYjMTA5MDsmIzEwODY7JiMxMDg3OyYjMTA4NjsmIzEwODM7JiMxMDg2OyYjMTA3ODsmIzEwNzc7JiMxMDg1OyYjMTA4MDsmIzExMDM7ICYjMTA4MDsgJiMxMDg5OyYjMTA4NjsmIzEwODk7JiMxMDkwOyYjMTA4NjsmIzExMDM7JiMxMDg1OyYjMTA4MDsmIzExMDM7ICYjMTA4NjsmIzEwNzM7JiMxMDg2OyYjMTA4ODsmIzEwOTE7JiMxMDc2OyYjMTA4NjsmIzEwNzQ7JiMxMDcyOyYjMTA4NTsmIzEwODA7JiMxMTAzOzwvdGV4dD48L2c+PGcgaWQ9ImVsZW1fJiMxMDU0OyYjMTA5MDsmIzEwOTU7JiMxMDc3OyYjMTA5MDsmIzEwOTk7ICYjMTA4MDsgJiMxMDcyOyYjMTA4NTsmIzEwNzI7JiMxMDgzOyYjMTA4MDsmIzEwOTA7JiMxMDgwOyYjMTA4MjsmIzEwNzI7ICYjMTA4NzsmIzEwODY7ICYjMTA4MDsmIzEwODk7JiMxMDg3OyYjMTA4NjsmIzEwODM7JiMxMTAwOyYjMTA3OTsmIzEwODY7JiMxMDc0OyYjMTA3MjsmIzEwODU7JiMxMDgwOyYjMTEwMjsgJiMxMDg2OyYjMTA3MzsmIzEwODY7JiMxMDg4OyYjMTA5MTsmIzEwNzY7JiMxMDg2OyYjMTA3NDsmIzEwNzI7JiMxMDg1OyYjMTA4MDsmIzExMDM7Ij48ZWxsaXBzZSBjeD0iODkxLjk2NDYiIGN5PSI3NTEuNzkyOSIgZmlsbD0iIzkwRUU5MCIgcng9IjE4MS45NjQ2IiByeT0iMzguNzkyOSIgc3R5bGU9InN0cm9rZTojMTgxODE4O3N0cm9rZS13aWR0aDowLjU7Ii8+PHRleHQgZmlsbD0iIzAwMDAwMCIgZm9udC1mYW1pbHk9InNhbnMtc2VyaWYiIGZvbnQtc2l6ZT0iMTQiIGxlbmd0aEFkanVzdD0ic3BhY2luZyIgdGV4dExlbmd0aD0iMzM4IiB4PSI3MjIuOTY0NiIgeT0iNzU1LjUzNTEiPiYjMTA1NDsmIzEwOTA7JiMxMDk1OyYjMTA3NzsmIzEwOTA7JiMxMDk5OyAmIzEwODA7ICYjMTA3MjsmIzEwODU7JiMxMDcyOyYjMTA4MzsmIzEwODA7JiMxMDkwOyYjMTA4MDsmIzEwODI7JiMxMDcyOyAmIzEwODc7JiMxMDg2OyAmIzEwODA7JiMxMDg5OyYjMTA4NzsmIzEwODY7JiMxMDgzOyYjMTEwMDsmIzEwNzk7JiMxMDg2OyYjMTA3NDsmIzEwNzI7JiMxMDg1OyYjMTA4MDsmIzExMDI7ICYjMTA4NjsmIzEwNzM7JiMxMDg2OyYjMTA4ODsmIzEwOTE7JiMxMDc2OyYjMTA4NjsmIzEwNzQ7JiMxMDcyOyYjMTA4NTsmIzEwODA7JiMxMTAzOzwvdGV4dD48L2c+PGcgaWQ9ImVsZW1fJiMxMDQ4OyYjMTA3OTsmIzEwODQ7JiMxMDc3OyYjMTA4NTsmIzEwNzc7JiMxMDg1OyYjMTA4MDsmIzEwNzc7ICYjMTA4NzsmIzEwNzI7JiMxMDg4OyYjMTA3MjsmIzEwODQ7JiMxMDc3OyYjMTA5MDsmIzEwODg7JiMxMDg2OyYjMTA3NDsgJiMxMDg2OyYjMTA3MzsmIzEwODY7JiMxMDg4OyYjMTA5MTsmIzEwNzY7JiMxMDg2OyYjMTA3NDsmIzEwNzI7JiMxMDg1OyYjMTA4MDsmIzExMDM7Ij48ZWxsaXBzZSBjeD0iODkyLjE0MzkiIGN5PSIzODkuOTI4OCIgZmlsbD0iIzkwRUU5MCIgcng9IjEzMC4xNDM5IiByeT0iMjguNDI4OCIgc3R5bGU9InN0cm9rZTojMTgxODE4O3N0cm9rZS13aWR0aDowLjU7Ii8+PHRleHQgZmlsbD0iIzAwMDAwMCIgZm9udC1mYW1pbHk9InNhbnMtc2VyaWYiIGZvbnQtc2l6ZT0iMTQiIGxlbmd0aEFkanVzdD0ic3BhY2luZyIgdGV4dExlbmd0aD0iMjMxIiB4PSI3NzYuNjQzOSIgeT0iMzkzLjY3MSI+JiMxMDQ4OyYjMTA3OTsmIzEwODQ7JiMxMDc3OyYjMTA4NTsmIzEwNzc7JiMxMDg1OyYjMTA4MDsmIzEwNzc7ICYjMTA4NzsmIzEwNzI7JiMxMDg4OyYjMTA3MjsmIzEwODQ7JiMxMDc3OyYjMTA5MDsmIzEwODg7JiMxMDg2OyYjMTA3NDsgJiMxMDg2OyYjMTA3MzsmIzEwODY7JiMxMDg4OyYjMTA5MTsmIzEwNzY7JiMxMDg2OyYjMTA3NDsmIzEwNzI7JiMxMDg1OyYjMTA4MDsmIzExMDM7PC90ZXh0PjwvZz48ZyBpZD0iZWxlbV8mIzEwNTk7JiMxMDc2OyYjMTA3MjsmIzEwODM7JiMxMDc3OyYjMTA4NTsmIzEwODA7JiMxMDc3OyAmIzEwODY7JiMxMDczOyYjMTA4NjsmIzEwODg7JiMxMDkxOyYjMTA3NjsmIzEwODY7JiMxMDc0OyYjMTA3MjsmIzEwODU7JiMxMDgwOyYjMTEwMzsgJiMxMDgwOyYjMTA3OTsgJiMxMDg5OyYjMTA4MDsmIzEwODk7JiMxMDkwOyYjMTA3NzsmIzEwODQ7JiMxMDk5OyI+PGVsbGlwc2UgY3g9Ijg5MS43ODAyIiBjeT0iNjQ5Ljg1NiIgZmlsbD0iIzkwRUU5MCIgcng9IjEyNy4yODAyIiByeT0iMjcuODU2IiBzdHlsZT0ic3Ryb2tlOiMxODE4MTg7c3Ryb2tlLXdpZHRoOjAuNTsiLz48dGV4dCBmaWxsPSIjMDAwMDAwIiBmb250LWZhbWlseT0ic2Fucy1zZXJpZiIgZm9udC1zaXplPSIxNCIgbGVuZ3RoQWRqdXN0PSJzcGFjaW5nIiB0ZXh0TGVuZ3RoPSIyMjUiIHg9Ijc3OS4yODAyIiB5PSI2NTMuNTk4MiI+JiMxMDU5OyYjMTA3NjsmIzEwNzI7JiMxMDgzOyYjMTA3NzsmIzEwODU7JiMxMDgwOyYjMTA3NzsgJiMxMDg2OyYjMTA3MzsmIzEwODY7JiMxMDg4OyYjMTA5MTsmIzEwNzY7JiMxMDg2OyYjMTA3NDsmIzEwNzI7JiMxMDg1OyYjMTA4MDsmIzExMDM7ICYjMTA4MDsmIzEwNzk7ICYjMTA4OTsmIzEwODA7JiMxMDg5OyYjMTA5MDsmIzEwNzc7JiMxMDg0OyYjMTA5OTs8L3RleHQ+PC9nPjxnIGlkPSJlbGVtX1VDNyI+PGVsbGlwc2UgY3g9IjQxNi43MjM0IiBjeT0iNDc4LjA0NDciIGZpbGw9IiM5MEVFOTAiIHJ4PSIxMTAuNzIzNCIgcnk9IjI0LjU0NDciIHN0eWxlPSJzdHJva2U6IzE4MTgxODtzdHJva2Utd2lkdGg6MC41OyIvPjx0ZXh0IGZpbGw9IiMwMDAwMDAiIGZvbnQtZmFtaWx5PSJzYW5zLXNlcmlmIiBmb250LXNpemU9IjE0IiBsZW5ndGhBZGp1c3Q9InNwYWNpbmciIHRleHRMZW5ndGg9IjE5MCIgeD0iMzIxLjcyMzQiIHk9IjQ4MS43ODY5Ij4mIzEwNTc7JiMxMDg2OyYjMTA3OTsmIzEwNzY7JiMxMDcyOyYjMTA4NTsmIzEwODA7JiMxMDc3OyAmIzEwODg7JiMxMDc3OyYjMTA3NTsmIzEwOTE7JiMxMDgzOyYjMTEwMzsmIzEwODg7JiMxMDg1OyYjMTA5OTsmIzEwOTM7ICYjMTA4NjsmIzEwOTA7JiMxMDk1OyYjMTA3NzsmIzEwOTA7JiMxMDg2OyYjMTA3NDs8L3RleHQ+PC9nPjxnIGlkPSJlbGVtX1VDOCI+PGVsbGlwc2UgY3g9IjQxNi4yNjMzIiBjeT0iNTU5Ljg1MjciIGZpbGw9IiM5MEVFOTAiIHJ4PSI5Ny4yNjMzIiByeT0iMjEuODUyNyIgc3R5bGU9InN0cm9rZTojMTgxODE4O3N0cm9rZS13aWR0aDowLjU7Ii8+PHRleHQgZmlsbD0iIzAwMDAwMCIgZm9udC1mYW1pbHk9InNhbnMtc2VyaWYiIGZvbnQtc2l6ZT0iMTQiIGxlbmd0aEFkanVzdD0ic3BhY2luZyIgdGV4dExlbmd0aD0iMTYxIiB4PSIzMzUuNzYzMyIgeT0iNTYzLjU5NDgiPiYjMTA1NTsmIzEwODY7JiMxMDgwOyYjMTA4OTsmIzEwODI7ICYjMTA4MDsmIzEwODk7JiMxMDkwOyYjMTA4NjsmIzEwODg7JiMxMDgwOyYjMTA4MDsgJiMxMDgwOyYjMTA3OTsmIzEwODQ7JiMxMDc3OyYjMTA4NTsmIzEwNzc7JiMxMDg1OyYjMTA4MDsmIzEwODE7PC90ZXh0PjwvZz48ZyBpZD0iZWxlbV9VQzkiPjxlbGxpcHNlIGN4PSI0MTYuNTUwNyIgY3k9IjMwNC45MTAxIiBmaWxsPSIjOTBFRTkwIiByeD0iODUuMDUwNyIgcnk9IjE5LjQxMDEiIHN0eWxlPSJzdHJva2U6IzE4MTgxODtzdHJva2Utd2lkdGg6MC41OyIvPjx0ZXh0IGZpbGw9IiMwMDAwMDAiIGZvbnQtZmFtaWx5PSJzYW5zLXNlcmlmIiBmb250LXNpemU9IjE0IiBsZW5ndGhBZGp1c3Q9InNwYWNpbmciIHRleHRMZW5ndGg9IjEzNCIgeD0iMzQ5LjU1MDciIHk9IjMwOC42NTIzIj4mIzEwNTk7JiMxMDg3OyYjMTA4ODsmIzEwNzI7JiMxMDc0OyYjMTA4MzsmIzEwNzc7JiMxMDg1OyYjMTA4MDsmIzEwNzc7ICYjMTA3NjsmIzEwODY7JiMxMDg5OyYjMTA5MDsmIzEwOTE7JiMxMDg3OyYjMTA4NjsmIzEwODQ7PC90ZXh0PjwvZz48ZyBpZD0iZWxlbV8mIzEwNDM7JiMxMDc3OyYjMTA4NTsmIzEwNzc7JiMxMDg4OyYjMTA3MjsmIzEwOTQ7JiMxMDgwOyYjMTEwMzsgJiMxMDg4OyYjMTA3NzsmIzEwNzU7JiMxMDkxOyYjMTA4MzsmIzExMDM7JiMxMDg4OyYjMTA4NTsmIzEwOTk7JiMxMDkzOyAmIzEwODY7JiMxMDkwOyYjMTA5NTsmIzEwNzc7JiMxMDkwOyYjMTA4NjsmIzEwNzQ7Ij48ZWxsaXBzZSBjeD0iODkyLjAxMTYiIGN5PSI0NzkuMjAyMyIgZmlsbD0iIzkwRUU5MCIgcng9IjExNC4wMTE2IiByeT0iMjUuMjAyMyIgc3R5bGU9InN0cm9rZTojMTgxODE4O3N0cm9rZS13aWR0aDowLjU7Ii8+PHRleHQgZmlsbD0iIzAwMDAwMCIgZm9udC1mYW1pbHk9InNhbnMtc2VyaWYiIGZvbnQtc2l6ZT0iMTQiIGxlbmd0aEFkanVzdD0ic3BhY2luZyIgdGV4dExlbmd0aD0iMTk3IiB4PSI3OTMuNTExNiIgeT0iNDgyLjk0NDUiPiYjMTA0MzsmIzEwNzc7JiMxMDg1OyYjMTA3NzsmIzEwODg7JiMxMDcyOyYjMTA5NDsmIzEwODA7JiMxMTAzOyAmIzEwODg7JiMxMDc3OyYjMTA3NTsmIzEwOTE7JiMxMDgzOyYjMTEwMzsmIzEwODg7JiMxMDg1OyYjMTA5OTsmIzEwOTM7ICYjMTA4NjsmIzEwOTA7JiMxMDk1OyYjMTA3NzsmIzEwOTA7JiMxMDg2OyYjMTA3NDs8L3RleHQ+PC9nPjxnIGlkPSJlbGVtXyYjMTA1NTsmIzEwODg7JiMxMDg2OyYjMTA4OTsmIzEwODQ7JiMxMDg2OyYjMTA5MDsmIzEwODg7ICYjMTA4MDsmIzEwODk7JiMxMDkwOyYjMTA4NjsmIzEwODg7JiMxMDgwOyYjMTA4MDsgJiMxMDgwOyYjMTA3OTsmIzEwODQ7JiMxMDc3OyYjMTA4NTsmIzEwNzc7JiMxMDg1OyYjMTA4MDsmIzEwODE7Ij48ZWxsaXBzZSBjeD0iODkxLjk4MjMiIGN5PSI1NjIuNzk2NSIgZmlsbD0iIzkwRUU5MCIgcng9IjEwNi45ODIzIiByeT0iMjMuNzk2NSIgc3R5bGU9InN0cm9rZTojMTgxODE4O3N0cm9rZS13aWR0aDowLjU7Ii8+PHRleHQgZmlsbD0iIzAwMDAwMCIgZm9udC1mYW1pbHk9InNhbnMtc2VyaWYiIGZvbnQtc2l6ZT0iMTQiIGxlbmd0aEFkanVzdD0ic3BhY2luZyIgdGV4dExlbmd0aD0iMTgyIiB4PSI4MDAuOTgyMyIgeT0iNTY2LjUzODciPiYjMTA1NTsmIzEwODg7JiMxMDg2OyYjMTA4OTsmIzEwODQ7JiMxMDg2OyYjMTA5MDsmIzEwODg7ICYjMTA4MDsmIzEwODk7JiMxMDkwOyYjMTA4NjsmIzEwODg7JiMxMDgwOyYjMTA4MDsgJiMxMDgwOyYjMTA3OTsmIzEwODQ7JiMxMDc3OyYjMTA4NTsmIzEwNzc7JiMxMDg1OyYjMTA4MDsmIzEwODE7PC90ZXh0PjwvZz48ZyBpZD0iZWxlbV8mIzEwNTM7JiMxMDcyOyYjMTA3OTsmIzEwODU7JiMxMDcyOyYjMTA5NTsmIzEwNzc7JiMxMDg1OyYjMTA4MDsmIzEwNzc7ICYjMTA4NzsmIzEwODg7JiMxMDcyOyYjMTA3NDsgJiMxMDc2OyYjMTA4NjsmIzEwODk7JiMxMDkwOyYjMTA5MTsmIzEwODc7JiMxMDcyOyI+PGVsbGlwc2UgY3g9Ijg5MS43NjMzIiBjeT0iMzAzLjg1MjciIGZpbGw9IiM5MEVFOTAiIHJ4PSI5Ny4yNjMzIiByeT0iMjEuODUyNyIgc3R5bGU9InN0cm9rZTojMTgxODE4O3N0cm9rZS13aWR0aDowLjU7Ii8+PHRleHQgZmlsbD0iIzAwMDAwMCIgZm9udC1mYW1pbHk9InNhbnMtc2VyaWYiIGZvbnQtc2l6ZT0iMTQiIGxlbmd0aEFkanVzdD0ic3BhY2luZyIgdGV4dExlbmd0aD0iMTYxIiB4PSI4MTEuMjYzMyIgeT0iMzA3LjU5NDgiPiYjMTA1MzsmIzEwNzI7JiMxMDc5OyYjMTA4NTsmIzEwNzI7JiMxMDk1OyYjMTA3NzsmIzEwODU7JiMxMDgwOyYjMTA3NzsgJiMxMDg3OyYjMTA4ODsmIzEwNzI7JiMxMDc0OyAmIzEwNzY7JiMxMDg2OyYjMTA4OTsmIzEwOTA7JiMxMDkxOyYjMTA4NzsmIzEwNzI7PC90ZXh0PjwvZz48ZyBpZD0iZWxlbV9VQzEwIj48ZWxsaXBzZSBjeD0iNDE2LjY1MDkiIGN5PSI5OTAuOTMwMiIgZmlsbD0iIzkwRUU5MCIgcng9IjEyMC4xNTA5IiByeT0iMjYuNDMwMiIgc3R5bGU9InN0cm9rZTojMTgxODE4O3N0cm9rZS13aWR0aDowLjU7Ii8+PHRleHQgZmlsbD0iIzAwMDAwMCIgZm9udC1mYW1pbHk9InNhbnMtc2VyaWYiIGZvbnQtc2l6ZT0iMTQiIGxlbmd0aEFkanVzdD0ic3BhY2luZyIgdGV4dExlbmd0aD0iMjEwIiB4PSIzMTEuNjUwOSIgeT0iOTk0LjY3MjQiPiYjMTA0ODsmIzEwODU7JiMxMDkwOyYjMTA3NzsmIzEwNzU7JiMxMDg4OyYjMTA3MjsmIzEwOTQ7JiMxMDgwOyYjMTEwMzsgJiMxMDg5OyAmIzEwNzY7JiMxMDg4OyYjMTA5MTsmIzEwNzU7JiMxMDgwOyYjMTA4NDsmIzEwODA7ICYjMTA4OTsmIzEwODA7JiMxMDg5OyYjMTA5MDsmIzEwNzc7JiMxMDg0OyYjMTA3MjsmIzEwODQ7JiMxMDgwOzwvdGV4dD48L2c+PGcgaWQ9ImVsZW1fVUMxMSI+PGVsbGlwc2UgY3g9IjQxNi40NDY4IiBjeT0iOTA3LjA4OTQiIGZpbGw9IiM5MEVFOTAiIHJ4PSIxMDAuOTQ2OCIgcnk9IjIyLjU4OTQiIHN0eWxlPSJzdHJva2U6IzE4MTgxODtzdHJva2Utd2lkdGg6MC41OyIvPjx0ZXh0IGZpbGw9IiMwMDAwMDAiIGZvbnQtZmFtaWx5PSJzYW5zLXNlcmlmIiBmb250LXNpemU9IjE0IiBsZW5ndGhBZGp1c3Q9InNwYWNpbmciIHRleHRMZW5ndGg9IjE2OSIgeD0iMzMxLjk0NjgiIHk9IjkxMC44MzE1Ij4mIzEwNTQ7JiMxMDczOyYjMTA4NTsmIzEwODY7JiMxMDc0OyYjMTA4MzsmIzEwNzc7JiMxMDg1OyYjMTA4MDsmIzEwNzc7ICYjMTA4NzsmIzEwODY7ICYjMTA4ODsmIzEwNzI7JiMxMDg5OyYjMTA4NzsmIzEwODA7JiMxMDg5OyYjMTA3MjsmIzEwODU7JiMxMDgwOyYjMTEwMjs8L3RleHQ+PC9nPjxnIGlkPSJlbGVtXyYjMTA0ODsmIzEwODU7JiMxMDkwOyYjMTA3NzsmIzEwNzU7JiMxMDg4OyYjMTA3MjsmIzEwOTQ7JiMxMDgwOyYjMTEwMzsgJiMxMDg5OyBDUk0iPjxlbGxpcHNlIGN4PSI4OTEuOTM4NCIgY3k9IjExMTYuOTg3NyIgZmlsbD0iIzkwRUU5MCIgcng9Ijc1LjQzODQiIHJ5PSIxNy40ODc3IiBzdHlsZT0ic3Ryb2tlOiMxODE4MTg7c3Ryb2tlLXdpZHRoOjAuNTsiLz48dGV4dCBmaWxsPSIjMDAwMDAwIiBmb250LWZhbWlseT0ic2Fucy1zZXJpZiIgZm9udC1zaXplPSIxNCIgbGVuZ3RoQWRqdXN0PSJzcGFjaW5nIiB0ZXh0TGVuZ3RoPSIxMTIiIHg9IjgzNS45Mzg0IiB5PSIxMTIwLjcyOTkiPiYjMTA0ODsmIzEwODU7JiMxMDkwOyYjMTA3NzsmIzEwNzU7JiMxMDg4OyYjMTA3MjsmIzEwOTQ7JiMxMDgwOyYjMTEwMzsgJiMxMDg5OyBDUk08L3RleHQ+PC9nPjxnIGlkPSJlbGVtXyYjMTA0ODsmIzEwODU7JiMxMDkwOyYjMTA3NzsmIzEwNzU7JiMxMDg4OyYjMTA3MjsmIzEwOTQ7JiMxMDgwOyYjMTEwMzsgJiMxMDg5OyBFUlAiPjxlbGxpcHNlIGN4PSI4OTEuOTM4NCIgY3k9IjkyOC45ODc3IiBmaWxsPSIjOTBFRTkwIiByeD0iNzUuNDM4NCIgcnk9IjE3LjQ4NzciIHN0eWxlPSJzdHJva2U6IzE4MTgxODtzdHJva2Utd2lkdGg6MC41OyIvPjx0ZXh0IGZpbGw9IiMwMDAwMDAiIGZvbnQtZmFtaWx5PSJzYW5zLXNlcmlmIiBmb250LXNpemU9IjE0IiBsZW5ndGhBZGp1c3Q9InNwYWNpbmciIHRleHRMZW5ndGg9IjExMiIgeD0iODM1LjkzODQiIHk9IjkzMi43Mjk5Ij4mIzEwNDg7JiMxMDg1OyYjMTA5MDsmIzEwNzc7JiMxMDc1OyYjMTA4ODsmIzEwNzI7JiMxMDk0OyYjMTA4MDsmIzExMDM7ICYjMTA4OTsgRVJQPC90ZXh0PjwvZz48ZyBpZD0iZWxlbV8mIzEwNDA7JiMxMDc0OyYjMTA5MDsmIzEwODY7JiMxMDg0OyYjMTA3MjsmIzEwOTA7JiMxMDgwOyYjMTA5NTsmIzEwNzc7JiMxMDg5OyYjMTA4MjsmIzEwODY7JiMxMDc3OyAmIzEwODY7JiMxMDczOyYjMTA4NTsmIzEwODY7JiMxMDc0OyYjMTA4MzsmIzEwNzc7JiMxMDg1OyYjMTA4MDsmIzEwNzc7ICYjMTA1NTsmIzEwNTQ7Ij48ZWxsaXBzZSBjeD0iODkyLjAxMTYiIGN5PSI4NTEuMjAyMyIgZmlsbD0iIzkwRUU5MCIgcng9IjExNC4wMTE2IiByeT0iMjUuMjAyMyIgc3R5bGU9InN0cm9rZTojMTgxODE4O3N0cm9rZS13aWR0aDowLjU7Ii8+PHRleHQgZmlsbD0iIzAwMDAwMCIgZm9udC1mYW1pbHk9InNhbnMtc2VyaWYiIGZvbnQtc2l6ZT0iMTQiIGxlbmd0aEFkanVzdD0ic3BhY2luZyIgdGV4dExlbmd0aD0iMTk3IiB4PSI3OTMuNTExNiIgeT0iODU0Ljk0NDUiPiYjMTA0MDsmIzEwNzQ7JiMxMDkwOyYjMTA4NjsmIzEwODQ7JiMxMDcyOyYjMTA5MDsmIzEwODA7JiMxMDk1OyYjMTA3NzsmIzEwODk7JiMxMDgyOyYjMTA4NjsmIzEwNzc7ICYjMTA4NjsmIzEwNzM7JiMxMDg1OyYjMTA4NjsmIzEwNzQ7JiMxMDgzOyYjMTA3NzsmIzEwODU7JiMxMDgwOyYjMTA3NzsgJiMxMDU1OyYjMTA1NDs8L3RleHQ+PC9nPjwhLS1lbnRpdHkgUEMtLT48ZyBpZD0iZWxlbV9QQyI+PGVsbGlwc2UgY3g9IjgzLjUiIGN5PSIxMjAzIiBmaWxsPSIjRjFGMUYxIiByeD0iOCIgcnk9IjgiIHN0eWxlPSJzdHJva2U6IzAwMDAwMDtzdHJva2Utd2lkdGg6MC41OyIvPjxwYXRoIGQ9Ik04My41LDEyMTEgTDgzLjUsMTIzOCBNNzAuNSwxMjE5IEw5Ni41LDEyMTkgTTgzLjUsMTIzOCBMNzAuNSwxMjUzIE04My41LDEyMzggTDk2LjUsMTI1MyAiIGZpbGw9Im5vbmUiIHN0eWxlPSJzdHJva2U6IzAwMDAwMDtzdHJva2Utd2lkdGg6MC41OyIvPjx0ZXh0IGZpbGw9IiMwMDAwMDAiIGZvbnQtZmFtaWx5PSJzYW5zLXNlcmlmIiBmb250LXNpemU9IjE0IiBsZW5ndGhBZGp1c3Q9InNwYWNpbmciIHRleHRMZW5ndGg9IjEyMCIgeD0iMjMuNSIgeT0iMTI2Ny43MzQ0Ij5Qb3RlbnRpYWxDdXN0b21lcjwvdGV4dD48L2c+PCEtLWVudGl0eSBNLS0+PGcgaWQ9ImVsZW1fTSI+PGVsbGlwc2UgY3g9IjgzLjUiIGN5PSIxMzEzIiBmaWxsPSIjRjFGMUYxIiByeD0iOCIgcnk9IjgiIHN0eWxlPSJzdHJva2U6IzAwMDAwMDtzdHJva2Utd2lkdGg6MC41OyIvPjxwYXRoIGQ9Ik04My41LDEzMjEgTDgzLjUsMTM0OCBNNzAuNSwxMzI5IEw5Ni41LDEzMjkgTTgzLjUsMTM0OCBMNzAuNSwxMzYzIE04My41LDEzNDggTDk2LjUsMTM2MyAiIGZpbGw9Im5vbmUiIHN0eWxlPSJzdHJva2U6IzAwMDAwMDtzdHJva2Utd2lkdGg6MC41OyIvPjx0ZXh0IGZpbGw9IiMwMDAwMDAiIGZvbnQtZmFtaWx5PSJzYW5zLXNlcmlmIiBmb250LXNpemU9IjE0IiBsZW5ndGhBZGp1c3Q9InNwYWNpbmciIHRleHRMZW5ndGg9IjQ5IiB4PSI1OSIgeT0iMTM3Ny43MzQ0Ij5NYW5hZ2VyPC90ZXh0PjwvZz48IS0tZW50aXR5IFRTLS0+PGcgaWQ9ImVsZW1fVFMiPjxlbGxpcHNlIGN4PSI4My41IiBjeT0iMTQyMyIgZmlsbD0iI0YxRjFGMSIgcng9IjgiIHJ5PSI4IiBzdHlsZT0ic3Ryb2tlOiMwMDAwMDA7c3Ryb2tlLXdpZHRoOjAuNTsiLz48cGF0aCBkPSJNODMuNSwxNDMxIEw4My41LDE0NTggTTcwLjUsMTQzOSBMOTYuNSwxNDM5IE04My41LDE0NTggTDcwLjUsMTQ3MyBNODMuNSwxNDU4IEw5Ni41LDE0NzMgIiBmaWxsPSJub25lIiBzdHlsZT0ic3Ryb2tlOiMwMDAwMDA7c3Ryb2tlLXdpZHRoOjAuNTsiLz48dGV4dCBmaWxsPSIjMDAwMDAwIiBmb250LWZhbWlseT0ic2Fucy1zZXJpZiIgZm9udC1zaXplPSIxNCIgbGVuZ3RoQWRqdXN0PSJzcGFjaW5nIiB0ZXh0TGVuZ3RoPSI5OCIgeD0iMzQuNSIgeT0iMTQ4Ny43MzQ0Ij5UZWNobmljYWxTdGFmZjwvdGV4dD48L2c+PCEtLWVudGl0eSBTQS0tPjxnIGlkPSJlbGVtX1NBIj48ZWxsaXBzZSBjeD0iODMuNSIgY3k9IjE1MzMiIGZpbGw9IiNGMUYxRjEiIHJ4PSI4IiByeT0iOCIgc3R5bGU9InN0cm9rZTojMDAwMDAwO3N0cm9rZS13aWR0aDowLjU7Ii8+PHBhdGggZD0iTTgzLjUsMTU0MSBMODMuNSwxNTY4IE03MC41LDE1NDkgTDk2LjUsMTU0OSBNODMuNSwxNTY4IEw3MC41LDE1ODMgTTgzLjUsMTU2OCBMOTYuNSwxNTgzICIgZmlsbD0ibm9uZSIgc3R5bGU9InN0cm9rZTojMDAwMDAwO3N0cm9rZS13aWR0aDowLjU7Ii8+PHRleHQgZmlsbD0iIzAwMDAwMCIgZm9udC1mYW1pbHk9InNhbnMtc2VyaWYiIGZvbnQtc2l6ZT0iMTQiIGxlbmd0aEFkanVzdD0ic3BhY2luZyIgdGV4dExlbmd0aD0iNzkiIHg9IjQ0IiB5PSIxNTk3LjczNDQiPlN5c3RlbUFkbWluPC90ZXh0PjwvZz48ZyBpZD0iZWxlbV9VQ19SZWciPjxlbGxpcHNlIGN4PSI0MTYuNDg1IiBjeT0iMTIzMC45OTciIGZpbGw9IiM5MEVFOTAiIHJ4PSIxMDAuNDg1IiByeT0iMjIuNDk3IiBzdHlsZT0ic3Ryb2tlOiMxODE4MTg7c3Ryb2tlLXdpZHRoOjAuNTsiLz48dGV4dCBmaWxsPSIjMDAwMDAwIiBmb250LWZhbWlseT0ic2Fucy1zZXJpZiIgZm9udC1zaXplPSIxNCIgbGVuZ3RoQWRqdXN0PSJzcGFjaW5nIiB0ZXh0TGVuZ3RoPSIxNjgiIHg9IjMzMi40ODUiIHk9IjEyMzQuNzM5MiI+JiMxMDU2OyYjMTA3NzsmIzEwNzU7JiMxMDgwOyYjMTA4OTsmIzEwOTA7JiMxMDg4OyYjMTA3MjsmIzEwOTQ7JiMxMDgwOyYjMTEwMzsgJiMxMDg2OyYjMTA3MzsmIzEwODY7JiMxMDg4OyYjMTA5MTsmIzEwNzY7JiMxMDg2OyYjMTA3NDsmIzEwNzI7JiMxMDg1OyYjMTA4MDsmIzExMDM7PC90ZXh0PjwvZz48ZyBpZD0iZWxlbV9VQ19UcmFjayI+PGVsbGlwc2UgY3g9IjQxNi4yODI3IiBjeT0iMTQ1Mi43NTY1IiBmaWxsPSIjOTBFRTkwIiByeD0iNjQuMjgyNyIgcnk9IjE1LjI1NjUiIHN0eWxlPSJzdHJva2U6IzE4MTgxODtzdHJva2Utd2lkdGg6MC41OyIvPjx0ZXh0IGZpbGw9IiMwMDAwMDAiIGZvbnQtZmFtaWx5PSJzYW5zLXNlcmlmIiBmb250LXNpemU9IjE0IiBsZW5ndGhBZGp1c3Q9InNwYWNpbmciIHRleHRMZW5ndGg9Ijg1IiB4PSIzNzMuNzgyNyIgeT0iMTQ1Ni40OTg3Ij4mIzEwNTQ7JiMxMDkwOyYjMTA4OTsmIzEwODM7JiMxMDc3OyYjMTA3ODsmIzEwODA7JiMxMDc0OyYjMTA3MjsmIzEwODU7JiMxMDgwOyYjMTA3Nzs8L3RleHQ+PC9nPjxnIGlkPSJlbGVtX1VDX1JlcG9ydHMiPjxlbGxpcHNlIGN4PSI0MTYuNDUzIiBjeT0iMTM4Mi43OTA2IiBmaWxsPSIjOTBFRTkwIiByeD0iODEuOTUzIiByeT0iMTguNzkwNiIgc3R5bGU9InN0cm9rZTojMTgxODE4O3N0cm9rZS13aWR0aDowLjU7Ii8+PHRleHQgZmlsbD0iIzAwMDAwMCIgZm9udC1mYW1pbHk9InNhbnMtc2VyaWYiIGZvbnQtc2l6ZT0iMTQiIGxlbmd0aEFkanVzdD0ic3BhY2luZyIgdGV4dExlbmd0aD0iMTI3IiB4PSIzNTIuOTUzIiB5PSIxMzg2LjUzMjgiPiYjMTA1NDsmIzEwOTA7JiMxMDk1OyYjMTA3NzsmIzEwOTA7JiMxMDk5OyAmIzEwODA7ICYjMTA3MjsmIzEwODU7JiMxMDcyOyYjMTA4MzsmIzEwODA7JiMxMDkwOyYjMTA4MDsmIzEwODI7JiMxMDcyOzwvdGV4dD48L2c+PGcgaWQ9ImVsZW1fVUNfRWRpdCI+PGVsbGlwc2UgY3g9IjQxNi43MzA5IiBjeT0iMTMwOC45NDYyIiBmaWxsPSIjOTBFRTkwIiByeD0iODcuNzMwOSIgcnk9IjE5Ljk0NjIiIHN0eWxlPSJzdHJva2U6IzE4MTgxODtzdHJva2Utd2lkdGg6MC41OyIvPjx0ZXh0IGZpbGw9IiMwMDAwMDAiIGZvbnQtZmFtaWx5PSJzYW5zLXNlcmlmIiBmb250LXNpemU9IjE0IiBsZW5ndGhBZGp1c3Q9InNwYWNpbmciIHRleHRMZW5ndGg9IjE0MCIgeD0iMzQ2LjczMDkiIHk9IjEzMTIuNjg4NCI+JiMxMDQ4OyYjMTA3OTsmIzEwODQ7JiMxMDc3OyYjMTA4NTsmIzEwNzc7JiMxMDg1OyYjMTA4MDsmIzEwNzc7ICYjMTA4NzsmIzEwNzI7JiMxMDg4OyYjMTA3MjsmIzEwODQ7JiMxMDc3OyYjMTA5MDsmIzEwODg7JiMxMDg2OyYjMTA3NDs8L3RleHQ+PC9nPjxnIGlkPSJlbGVtX1VDX0RlbGV0ZSI+PGVsbGlwc2UgY3g9IjQxNi4zMzY0IiBjeT0iMTUyNC4xNjczIiBmaWxsPSIjOTBFRTkwIiByeD0iOTEuMzM2NCIgcnk9IjIwLjY2NzMiIHN0eWxlPSJzdHJva2U6IzE4MTgxODtzdHJva2Utd2lkdGg6MC41OyIvPjx0ZXh0IGZpbGw9IiMwMDAwMDAiIGZvbnQtZmFtaWx5PSJzYW5zLXNlcmlmIiBmb250LXNpemU9IjE0IiBsZW5ndGhBZGp1c3Q9InNwYWNpbmciIHRleHRMZW5ndGg9IjE0OCIgeD0iMzQyLjMzNjQiIHk9IjE1MjcuOTA5NSI+JiMxMDU5OyYjMTA3NjsmIzEwNzI7JiMxMDgzOyYjMTA3NzsmIzEwODU7JiMxMDgwOyYjMTA3NzsgJiMxMDg2OyYjMTA3MzsmIzEwODY7JiMxMDg4OyYjMTA5MTsmIzEwNzY7JiMxMDg2OyYjMTA3NDsmIzEwNzI7JiMxMDg1OyYjMTA4MDsmIzExMDM7PC90ZXh0PjwvZz48IS0tZW50aXR5IFBvdGVudGlhbEN1c3RvbWVyLS0+PGcgaWQ9ImVsZW1fUG90ZW50aWFsQ3VzdG9tZXIiPjxlbGxpcHNlIGN4PSI4My41IiBjeT0iMTEzIiBmaWxsPSIjRjFGMUYxIiByeD0iOCIgcnk9IjgiIHN0eWxlPSJzdHJva2U6IzAwMDAwMDtzdHJva2Utd2lkdGg6MC41OyIvPjxwYXRoIGQ9Ik04My41LDEyMSBMODMuNSwxNDggTTcwLjUsMTI5IEw5Ni41LDEyOSBNODMuNSwxNDggTDcwLjUsMTYzIE04My41LDE0OCBMOTYuNSwxNjMgIiBmaWxsPSJub25lIiBzdHlsZT0ic3Ryb2tlOiMwMDAwMDA7c3Ryb2tlLXdpZHRoOjAuNTsiLz48dGV4dCBmaWxsPSIjMDAwMDAwIiBmb250LWZhbWlseT0ic2Fucy1zZXJpZiIgZm9udC1zaXplPSIxNCIgbGVuZ3RoQWRqdXN0PSJzcGFjaW5nIiB0ZXh0TGVuZ3RoPSIxNTUiIHg9IjYiIHk9IjE3Ny43MzQ0Ij4mIzEwNTU7JiMxMDg2OyYjMTA5MDsmIzEwNzc7JiMxMDg1OyYjMTA5NDsmIzEwODA7JiMxMDcyOyYjMTA4MzsmIzExMDA7JiMxMDg1OyYjMTA5OTsmIzEwODE7ICYjMTA3OTsmIzEwNzI7JiMxMDgyOyYjMTA3MjsmIzEwNzk7JiMxMDk1OyYjMTA4MDsmIzEwODI7PC90ZXh0PjwvZz48IS0tZW50aXR5IE1hbmFnZXItLT48ZyBpZD0iZWxlbV9NYW5hZ2VyIj48ZWxsaXBzZSBjeD0iODMuNSIgY3k9IjQ0OSIgZmlsbD0iI0YxRjFGMSIgcng9IjgiIHJ5PSI4IiBzdHlsZT0ic3Ryb2tlOiMwMDAwMDA7c3Ryb2tlLXdpZHRoOjAuNTsiLz48cGF0aCBkPSJNODMuNSw0NTcgTDgzLjUsNDg0IE03MC41LDQ2NSBMOTYuNSw0NjUgTTgzLjUsNDg0IEw3MC41LDQ5OSBNODMuNSw0ODQgTDk2LjUsNDk5ICIgZmlsbD0ibm9uZSIgc3R5bGU9InN0cm9rZTojMDAwMDAwO3N0cm9rZS13aWR0aDowLjU7Ii8+PHRleHQgZmlsbD0iIzAwMDAwMCIgZm9udC1mYW1pbHk9InNhbnMtc2VyaWYiIGZvbnQtc2l6ZT0iMTQiIGxlbmd0aEFkanVzdD0ic3BhY2luZyIgdGV4dExlbmd0aD0iNTYiIHg9IjU1LjUiIHk9IjUxMy43MzQ0Ij4mIzEwNTI7JiMxMDc3OyYjMTA4NTsmIzEwNzc7JiMxMDc2OyYjMTA3ODsmIzEwNzc7JiMxMDg4OzwvdGV4dD48L2c+PCEtLWVudGl0eSBUZWNobmljYWxTdGFmZi0tPjxnIGlkPSJlbGVtX1RlY2huaWNhbFN0YWZmIj48ZWxsaXBzZSBjeD0iODMuNSIgY3k9Ijc0MCIgZmlsbD0iI0YxRjFGMSIgcng9IjgiIHJ5PSI4IiBzdHlsZT0ic3Ryb2tlOiMwMDAwMDA7c3Ryb2tlLXdpZHRoOjAuNTsiLz48cGF0aCBkPSJNODMuNSw3NDggTDgzLjUsNzc1IE03MC41LDc1NiBMOTYuNSw3NTYgTTgzLjUsNzc1IEw3MC41LDc5MCBNODMuNSw3NzUgTDk2LjUsNzkwICIgZmlsbD0ibm9uZSIgc3R5bGU9InN0cm9rZTojMDAwMDAwO3N0cm9rZS13aWR0aDowLjU7Ii8+PHRleHQgZmlsbD0iIzAwMDAwMCIgZm9udC1mYW1pbHk9InNhbnMtc2VyaWYiIGZvbnQtc2l6ZT0iMTQiIGxlbmd0aEFkanVzdD0ic3BhY2luZyIgdGV4dExlbmd0aD0iMTQxIiB4PSIxMyIgeT0iODA0LjczNDQiPiYjMTA1ODsmIzEwNzc7JiMxMDkzOyYjMTA4NTsmIzEwODA7JiMxMDk1OyYjMTA3NzsmIzEwODk7JiMxMDgyOyYjMTA4MDsmIzEwODE7ICYjMTA4NzsmIzEwNzc7JiMxMDg4OyYjMTA4OTsmIzEwODY7JiMxMDg1OyYjMTA3MjsmIzEwODM7PC90ZXh0PjwvZz48IS0tZW50aXR5IFN5c3RlbUFkbWluLS0+PGcgaWQ9ImVsZW1fU3lzdGVtQWRtaW4iPjxlbGxpcHNlIGN4PSI4My41IiBjeT0iODc4IiBmaWxsPSIjRjFGMUYxIiByeD0iOCIgcnk9IjgiIHN0eWxlPSJzdHJva2U6IzAwMDAwMDtzdHJva2Utd2lkdGg6MC41OyIvPjxwYXRoIGQ9Ik04My41LDg4NiBMODMuNSw5MTMgTTcwLjUsODk0IEw5Ni41LDg5NCBNODMuNSw5MTMgTDcwLjUsOTI4IE04My41LDkxMyBMOTYuNSw5MjggIiBmaWxsPSJub25lIiBzdHlsZT0ic3Ryb2tlOiMwMDAwMDA7c3Ryb2tlLXdpZHRoOjAuNTsiLz48dGV4dCBmaWxsPSIjMDAwMDAwIiBmb250LWZhbWlseT0ic2Fucy1zZXJpZiIgZm9udC1zaXplPSIxNCIgbGVuZ3RoQWRqdXN0PSJzcGFjaW5nIiB0ZXh0TGVuZ3RoPSI5MSIgeD0iMzgiIHk9Ijk0Mi43MzQ0Ij4mIzEwNDA7JiMxMDc2OyYjMTA4NDsmIzEwODA7JiMxMDg1OyYjMTA4MDsmIzEwODk7JiMxMDkwOyYjMTA4ODsmIzEwNzI7JiMxMDkwOyYjMTA4NjsmIzEwODg7PC90ZXh0PjwvZz48IS0tbGluayBQb3RlbnRpYWxDdXN0b21lciB0byBVQzEtLT48ZyBpZD0ibGlua19Qb3RlbnRpYWxDdXN0b21lcl9VQzEiPjxwYXRoIGQ9Ik0xNjEuMjcsMTU1LjQ1IEMxOTIuMywxNjAuODkgMjI5LjI1LDE2Ny4zNiAyNjUuMjIsMTczLjY3ICIgZmlsbD0ibm9uZSIgaWQ9IlBvdGVudGlhbEN1c3RvbWVyLVVDMSIgc3R5bGU9InN0cm9rZTojMTgxODE4O3N0cm9rZS13aWR0aDoxLjA7Ii8+PC9nPjwhLS1saW5rIFBvdGVudGlhbEN1c3RvbWVyIHRvIFVDMi0tPjxnIGlkPSJsaW5rX1BvdGVudGlhbEN1c3RvbWVyX1VDMiI+PHBhdGggZD0iTTE2MS4yNywxMjguNTUgQzE5OS4yNywxMjEuODkgMjQ2LjE0LDExMy42OCAyODkuMjQsMTA2LjEyICIgZmlsbD0ibm9uZSIgaWQ9IlBvdGVudGlhbEN1c3RvbWVyLVVDMiIgc3R5bGU9InN0cm9rZTojMTgxODE4O3N0cm9rZS13aWR0aDoxLjA7Ii8+PC9nPjwhLS1saW5rIE1hbmFnZXIgdG8gVUMxLS0+PGcgaWQ9ImxpbmtfTWFuYWdlcl9VQzEiPjxwYXRoIGQ9Ik05NC45MSw0NDAuNDYgQzEwOS44NSwzOTMuNDUgMTQxLjgzLDMxMy41NyAxOTcsMjY4IEMyMTguMjksMjUwLjQyIDI0NC4xMiwyMzcuMzcgMjcwLjQ3LDIyNy42OSAiIGZpbGw9Im5vbmUiIGlkPSJNYW5hZ2VyLVVDMSIgc3R5bGU9InN0cm9rZTojMTgxODE4O3N0cm9rZS13aWR0aDoxLjA7Ii8+PC9nPjwhLS1saW5rIE1hbmFnZXIgdG8gVUMzLS0+PGcgaWQ9ImxpbmtfTWFuYWdlcl9VQzMiPjxwYXRoIGQ9Ik05NC4wNSw1MTUuNzEgQzEwOC4yMyw1NjMuNzMgMTM5LjU1LDY0NS43NyAxOTcsNjkwIEMyMjAuNDYsNzA4LjA2IDI0OS4yNSw3MTkuODkgMjc4LjEzLDcyNy42ICIgZmlsbD0ibm9uZSIgaWQ9Ik1hbmFnZXItVUMzIiBzdHlsZT0ic3Ryb2tlOiMxODE4MTg7c3Ryb2tlLXdpZHRoOjEuMDsiLz48L2c+PCEtLWxpbmsgTWFuYWdlciB0byBVQzQtLT48ZyBpZD0ibGlua19NYW5hZ2VyX1VDNCI+PHBhdGggZD0iTTEwOS42MSw1MTUuNTQgQzEyOS45NCw1NDIuOTMgMTYxLjA1LDU3OC42NyAxOTcsNTk5IEMyMjcuNzksNjE2LjQxIDI2NC4zOSw2MjcuMjYgMjk4Ljc1LDYzNCAiIGZpbGw9Im5vbmUiIGlkPSJNYW5hZ2VyLVVDNCIgc3R5bGU9InN0cm9rZTojMTgxODE4O3N0cm9rZS13aWR0aDoxLjA7Ii8+PC9nPjwhLS1saW5rIE1hbmFnZXIgdG8gVUM1LS0+PGcgaWQ9ImxpbmtfTWFuYWdlcl9VQzUiPjxwYXRoIGQ9Ik0xMTEuODUsNDY2LjQ3IEMxMzQuNCw0NTcuMjkgMTY3LjM3LDQ0NC42IDE5Nyw0MzYgQzIzNS4wNyw0MjQuOTUgMjc3LjU4LDQxNS4zOSAzMTQuOTIsNDA3Ljg5ICIgZmlsbD0ibm9uZSIgaWQ9Ik1hbmFnZXItVUM1IiBzdHlsZT0ic3Ryb2tlOiMxODE4MTg7c3Ryb2tlLXdpZHRoOjEuMDsiLz48L2c+PCEtLWxpbmsgVGVjaG5pY2FsU3RhZmYgdG8gVUMzLS0+PGcgaWQ9ImxpbmtfVGVjaG5pY2FsU3RhZmZfVUMzIj48cGF0aCBkPSJNMTU0LjI5LDc2My4xIEMxODkuNDgsNzYwLjEyIDIzMy40NSw3NTYuNCAyNzUuMjMsNzUyLjg3ICIgZmlsbD0ibm9uZSIgaWQ9IlRlY2huaWNhbFN0YWZmLVVDMyIgc3R5bGU9InN0cm9rZTojMTgxODE4O3N0cm9rZS13aWR0aDoxLjA7Ii8+PC9nPjwhLS1saW5rIFRlY2huaWNhbFN0YWZmIHRvIFVDNi0tPjxnIGlkPSJsaW5rX1RlY2huaWNhbFN0YWZmX1VDNiI+PHBhdGggZD0iTTE1NC4wNyw3ODIuODQgQzE2OC4yNiw3ODUuNiAxODMuMTEsNzg4LjQzIDE5Nyw3OTEgQzI0NS40Niw3OTkuOTUgMzAwLjA5LDgwOS40NSAzNDIuNiw4MTYuNzEgIiBmaWxsPSJub25lIiBpZD0iVGVjaG5pY2FsU3RhZmYtVUM2IiBzdHlsZT0ic3Ryb2tlOiMxODE4MTg7c3Ryb2tlLXdpZHRoOjEuMDsiLz48L2c+PCEtLWxpbmsgU3lzdGVtQWRtaW4gdG8gVUM2LS0+PGcgaWQ9ImxpbmtfU3lzdGVtQWRtaW5fVUM2Ij48cGF0aCBkPSJNMTI5LjEyLDg4OS4xNyBDMTQ5LjU1LDg4MS41MiAxNzQuMjQsODcyLjk4IDE5Nyw4NjcgQzI0Mi45LDg1NC45NCAyOTUuMjUsODQ1LjY5IDMzNy4yLDgzOS4zMyAiIGZpbGw9Im5vbmUiIGlkPSJTeXN0ZW1BZG1pbi1VQzYiIHN0eWxlPSJzdHJva2U6IzE4MTgxODtzdHJva2Utd2lkdGg6MS4wOyIvPjwvZz48IS0tbGluayBVQzEgdG8gPz8/Pz8/Pz8/Pz8gPz8/Pz8/Pz8/Pz8/ID8/PyA/Pz8/Pz8gPz8/Pz8/Pz8/Pz8/ID8/Pz8/Pz8/Pz8tLT48ZyBpZD0ibGlua19VQzFfJiMxMDU2OyYjMTA3NzsmIzEwNzU7JiMxMDgwOyYjMTA4OTsmIzEwOTA7JiMxMDg4OyYjMTA3MjsmIzEwOTQ7JiMxMDgwOyYjMTEwMzsgJiMxMDg2OyYjMTA3MzsmIzEwODY7JiMxMDg4OyYjMTA5MTsmIzEwNzY7JiMxMDg2OyYjMTA3NDsmIzEwNzI7JiMxMDg1OyYjMTA4MDsmIzExMDM7ICYjMTA4NzsmIzEwODg7JiMxMDgwOyAmIzEwODc7JiMxMDg2OyYjMTA4NDsmIzEwODY7JiMxMDk3OyYjMTA4MDsgJiMxMDc1OyYjMTA4ODsmIzEwNzI7JiMxMDkyOyYjMTA4MDsmIzEwOTU7JiMxMDc3OyYjMTA4OTsmIzEwODI7JiMxMDg2OyYjMTA3NTsmIzEwODY7ICYjMTA4MDsmIzEwODU7JiMxMDkwOyYjMTA3NzsmIzEwODg7JiMxMDkyOyYjMTA3NzsmIzEwODE7JiMxMDg5OyYjMTA3MjsiPjxwYXRoIGQ9Ik02MTIuMTQsMjAwIEM2MzEuNzgsMjAwIDY0NS44MiwyMDAgNjY1LjcsMjAwICIgZmlsbD0ibm9uZSIgaWQ9IlVDMS10by0mIzEwNTY7JiMxMDc3OyYjMTA3NTsmIzEwODA7JiMxMDg5OyYjMTA5MDsmIzEwODg7JiMxMDcyOyYjMTA5NDsmIzEwODA7JiMxMTAzOyAmIzEwODY7JiMxMDczOyYjMTA4NjsmIzEwODg7JiMxMDkxOyYjMTA3NjsmIzEwODY7JiMxMDc0OyYjMTA3MjsmIzEwODU7JiMxMDgwOyYjMTEwMzsgJiMxMDg3OyYjMTA4ODsmIzEwODA7ICYjMTA4NzsmIzEwODY7JiMxMDg0OyYjMTA4NjsmIzEwOTc7JiMxMDgwOyAmIzEwNzU7JiMxMDg4OyYjMTA3MjsmIzEwOTI7JiMxMDgwOyYjMTA5NTsmIzEwNzc7JiMxMDg5OyYjMTA4MjsmIzEwODY7JiMxMDc1OyYjMTA4NjsgJiMxMDgwOyYjMTA4NTsmIzEwOTA7JiMxMDc3OyYjMTA4ODsmIzEwOTI7JiMxMDc3OyYjMTA4MTsmIzEwODk7JiMxMDcyOyIgc3R5bGU9InN0cm9rZTojMTgxODE4O3N0cm9rZS13aWR0aDoxLjA7Ii8+PHBvbHlnb24gZmlsbD0iIzE4MTgxOCIgcG9pbnRzPSI2NzEuNywyMDAsNjYyLjcsMTk2LDY2Ni43LDIwMCw2NjIuNywyMDQsNjcxLjcsMjAwIiBzdHlsZT0ic3Ryb2tlOiMxODE4MTg7c3Ryb2tlLXdpZHRoOjEuMDsiLz48L2c+PCEtLWxpbmsgVUMyIHRvID8/Pz8/Pz8/Pz8/ID8/Pz8/Pz8/Pz8/PyA/Pz8gPz8/Pz8/IFJFU1QgPz8/Pz8/Pz8tLT48ZyBpZD0ibGlua19VQzJfJiMxMDU2OyYjMTA3NzsmIzEwNzU7JiMxMDgwOyYjMTA4OTsmIzEwOTA7JiMxMDg4OyYjMTA3MjsmIzEwOTQ7JiMxMDgwOyYjMTEwMzsgJiMxMDg2OyYjMTA3MzsmIzEwODY7JiMxMDg4OyYjMTA5MTsmIzEwNzY7JiMxMDg2OyYjMTA3NDsmIzEwNzI7JiMxMDg1OyYjMTA4MDsmIzExMDM7ICYjMTA4NzsmIzEwODg7JiMxMDgwOyAmIzEwODc7JiMxMDg2OyYjMTA4NDsmIzEwODY7JiMxMDk3OyYjMTA4MDsgUkVTVCAmIzEwNzk7JiMxMDcyOyYjMTA4NzsmIzEwODg7JiMxMDg2OyYjMTA4OTsmIzEwODY7JiMxMDc0OyI+PHBhdGggZD0iTTU4MC40NSw4Mi4yOCBDNjIxLjM4LDgxLjg1IDY1OS41ODAzLDgxLjQ0MzEgNzAxLjQ0MDMsODEuMDAzMSAiIGZpbGw9Im5vbmUiIGlkPSJVQzItdG8tJiMxMDU2OyYjMTA3NzsmIzEwNzU7JiMxMDgwOyYjMTA4OTsmIzEwOTA7JiMxMDg4OyYjMTA3MjsmIzEwOTQ7JiMxMDgwOyYjMTEwMzsgJiMxMDg2OyYjMTA3MzsmIzEwODY7JiMxMDg4OyYjMTA5MTsmIzEwNzY7JiMxMDg2OyYjMTA3NDsmIzEwNzI7JiMxMDg1OyYjMTA4MDsmIzExMDM7ICYjMTA4NzsmIzEwODg7JiMxMDgwOyAmIzEwODc7JiMxMDg2OyYjMTA4NDsmIzEwODY7JiMxMDk3OyYjMTA4MDsgUkVTVCAmIzEwNzk7JiMxMDcyOyYjMTA4NzsmIzEwODg7JiMxMDg2OyYjMTA4OTsmIzEwODY7JiMxMDc0OyIgc3R5bGU9InN0cm9rZTojMTgxODE4O3N0cm9rZS13aWR0aDoxLjA7Ii8+PHBvbHlnb24gZmlsbD0iIzE4MTgxOCIgcG9pbnRzPSI3MDcuNDQsODAuOTQsNjk4LjM5ODUsNzcuMDM0OCw3MDIuNDQwMyw4MC45OTI2LDY5OC40ODI1LDg1LjAzNDQsNzA3LjQ0LDgwLjk0IiBzdHlsZT0ic3Ryb2tlOiMxODE4MTg7c3Ryb2tlLXdpZHRoOjEuMDsiLz48L2c+PCEtLWxpbmsgVUMzIHRvID8/Pz8/Pz8/Pz8/PyA/Pz8/Pz8/Pz8/Pz8/PyA/ID8/Pz8/Pz8/PyA/Pz8/Pz8/Pz8/Pz8tLT48ZyBpZD0ibGlua19VQzNfJiMxMDU0OyYjMTA5MDsmIzEwODk7JiMxMDgzOyYjMTA3NzsmIzEwNzg7JiMxMDgwOyYjMTA3NDsmIzEwNzI7JiMxMDg1OyYjMTA4MDsmIzEwNzc7ICYjMTA4NDsmIzEwNzc7JiMxMDg5OyYjMTA5MDsmIzEwODY7JiMxMDg3OyYjMTA4NjsmIzEwODM7JiMxMDg2OyYjMTA3ODsmIzEwNzc7JiMxMDg1OyYjMTA4MDsmIzExMDM7ICYjMTA4MDsgJiMxMDg5OyYjMTA4NjsmIzEwODk7JiMxMDkwOyYjMTA4NjsmIzExMDM7JiMxMDg1OyYjMTA4MDsmIzExMDM7ICYjMTA4NjsmIzEwNzM7JiMxMDg2OyYjMTA4ODsmIzEwOTE7JiMxMDc2OyYjMTA4NjsmIzEwNzQ7JiMxMDcyOyYjMTA4NTsmIzEwODA7JiMxMTAzOyI+PHBhdGggZD0iTTU1MC4xNiw3NTYuMzkgQzU3Mi44Miw3NjMuOTYgNTk0LjYyLDc3NSA2MTIsNzkxIEM2NzEuODYsODQ2LjEzIDYxMi40Niw5MDguNTIgNjcyLDk2NCBDNjg4LjY0LDk3OS41IDcwMy4zMzU0LDk4OC43OTExIDcyNC43NjU0LDk5Ny4zMjExICIgZmlsbD0ibm9uZSIgaWQ9IlVDMy10by0mIzEwNTQ7JiMxMDkwOyYjMTA4OTsmIzEwODM7JiMxMDc3OyYjMTA3ODsmIzEwODA7JiMxMDc0OyYjMTA3MjsmIzEwODU7JiMxMDgwOyYjMTA3NzsgJiMxMDg0OyYjMTA3NzsmIzEwODk7JiMxMDkwOyYjMTA4NjsmIzEwODc7JiMxMDg2OyYjMTA4MzsmIzEwODY7JiMxMDc4OyYjMTA3NzsmIzEwODU7JiMxMDgwOyYjMTEwMzsgJiMxMDgwOyAmIzEwODk7JiMxMDg2OyYjMTA4OTsmIzEwOTA7JiMxMDg2OyYjMTEwMzsmIzEwODU7JiMxMDgwOyYjMTEwMzsgJiMxMDg2OyYjMTA3MzsmIzEwODY7JiMxMDg4OyYjMTA5MTsmIzEwNzY7JiMxMDg2OyYjMTA3NDsmIzEwNzI7JiMxMDg1OyYjMTA4MDsmIzExMDM7IiBzdHlsZT0ic3Ryb2tlOiMxODE4MTg7c3Ryb2tlLXdpZHRoOjEuMDsiLz48cG9seWdvbiBmaWxsPSIjMTgxODE4IiBwb2ludHM9IjczMC4zNCw5OTkuNTQsNzIzLjQ1NzQsOTkyLjQ5NTIsNzI1LjY5NDUsOTk3LjY5MDksNzIwLjQ5ODgsOTk5LjkyOCw3MzAuMzQsOTk5LjU0IiBzdHlsZT0ic3Ryb2tlOiMxODE4MTg7c3Ryb2tlLXdpZHRoOjEuMDsiLz48L2c+PCEtLWxpbmsgVUM0IHRvID8/Pz8/PyA/ID8/Pz8/Pz8/PyA/PyA/Pz8/Pz8/Pz8/Pz8/ID8/Pz8/Pz8/Pz8/Py0tPjxnIGlkPSJsaW5rX1VDNF8mIzEwNTQ7JiMxMDkwOyYjMTA5NTsmIzEwNzc7JiMxMDkwOyYjMTA5OTsgJiMxMDgwOyAmIzEwNzI7JiMxMDg1OyYjMTA3MjsmIzEwODM7JiMxMDgwOyYjMTA5MDsmIzEwODA7JiMxMDgyOyYjMTA3MjsgJiMxMDg3OyYjMTA4NjsgJiMxMDgwOyYjMTA4OTsmIzEwODc7JiMxMDg2OyYjMTA4MzsmIzExMDA7JiMxMDc5OyYjMTA4NjsmIzEwNzQ7JiMxMDcyOyYjMTA4NTsmIzEwODA7JiMxMTAyOyAmIzEwODY7JiMxMDczOyYjMTA4NjsmIzEwODg7JiMxMDkxOyYjMTA3NjsmIzEwODY7JiMxMDc0OyYjMTA3MjsmIzEwODU7JiMxMDgwOyYjMTEwMzsiPjxwYXRoIGQ9Ik01MDYuMjgsNjY1LjA2IEM1NzkuNTIsNjgxLjYxIDY3OC40Mzc2LDcwMy45NjczIDc2MC4xNTc2LDcyMi40MzczICIgZmlsbD0ibm9uZSIgaWQ9IlVDNC10by0mIzEwNTQ7JiMxMDkwOyYjMTA5NTsmIzEwNzc7JiMxMDkwOyYjMTA5OTsgJiMxMDgwOyAmIzEwNzI7JiMxMDg1OyYjMTA3MjsmIzEwODM7JiMxMDgwOyYjMTA5MDsmIzEwODA7JiMxMDgyOyYjMTA3MjsgJiMxMDg3OyYjMTA4NjsgJiMxMDgwOyYjMTA4OTsmIzEwODc7JiMxMDg2OyYjMTA4MzsmIzExMDA7JiMxMDc5OyYjMTA4NjsmIzEwNzQ7JiMxMDcyOyYjMTA4NTsmIzEwODA7JiMxMTAyOyAmIzEwODY7JiMxMDczOyYjMTA4NjsmIzEwODg7JiMxMDkxOyYjMTA3NjsmIzEwODY7JiMxMDc0OyYjMTA3MjsmIzEwODU7JiMxMDgwOyYjMTEwMzsiIHN0eWxlPSJzdHJva2U6IzE4MTgxODtzdHJva2Utd2lkdGg6MS4wOyIvPjxwb2x5Z29uIGZpbGw9IiMxODE4MTgiIHBvaW50cz0iNzY2LjAxLDcyMy43Niw3NTguMTEzMiw3MTcuODc0Myw3NjEuMTMzLDcyMi42NTc3LDc1Ni4zNDk2LDcyNS42Nzc1LDc2Ni4wMSw3MjMuNzYiIHN0eWxlPSJzdHJva2U6IzE4MTgxODtzdHJva2Utd2lkdGg6MS4wOyIvPjwvZz48IS0tbGluayBVQzUgdG8gPz8/Pz8/Pz8/ID8/Pz8/Pz8/Pz8gPz8/Pz8/Pz8/Pz8/LS0+PGcgaWQ9ImxpbmtfVUM1XyYjMTA0ODsmIzEwNzk7JiMxMDg0OyYjMTA3NzsmIzEwODU7JiMxMDc3OyYjMTA4NTsmIzEwODA7JiMxMDc3OyAmIzEwODc7JiMxMDcyOyYjMTA4ODsmIzEwNzI7JiMxMDg0OyYjMTA3NzsmIzEwOTA7JiMxMDg4OyYjMTA4NjsmIzEwNzQ7ICYjMTA4NjsmIzEwNzM7JiMxMDg2OyYjMTA4ODsmIzEwOTE7JiMxMDc2OyYjMTA4NjsmIzEwNzQ7JiMxMDcyOyYjMTA4NTsmIzEwODA7JiMxMTAzOyI+PHBhdGggZD0iTTU0Ni41NywzOTAgQzYxMy4zOSwzOTAgNjg4Ljc0LDM5MCA3NTUuNjEsMzkwICIgZmlsbD0ibm9uZSIgaWQ9IlVDNS10by0mIzEwNDg7JiMxMDc5OyYjMTA4NDsmIzEwNzc7JiMxMDg1OyYjMTA3NzsmIzEwODU7JiMxMDgwOyYjMTA3NzsgJiMxMDg3OyYjMTA3MjsmIzEwODg7JiMxMDcyOyYjMTA4NDsmIzEwNzc7JiMxMDkwOyYjMTA4ODsmIzEwODY7JiMxMDc0OyAmIzEwODY7JiMxMDczOyYjMTA4NjsmIzEwODg7JiMxMDkxOyYjMTA3NjsmIzEwODY7JiMxMDc0OyYjMTA3MjsmIzEwODU7JiMxMDgwOyYjMTEwMzsiIHN0eWxlPSJzdHJva2U6IzE4MTgxODtzdHJva2Utd2lkdGg6MS4wOyIvPjxwb2x5Z29uIGZpbGw9IiMxODE4MTgiIHBvaW50cz0iNzYxLjYxLDM5MCw3NTIuNjEsMzg2LDc1Ni42MSwzOTAsNzUyLjYxLDM5NCw3NjEuNjEsMzkwIiBzdHlsZT0ic3Ryb2tlOiMxODE4MTg7c3Ryb2tlLXdpZHRoOjEuMDsiLz48L2c+PCEtLWxpbmsgVUM2IHRvID8/Pz8/Pz8/ID8/Pz8/Pz8/Pz8/PyA/PyA/Pz8/Pz8/LS0+PGcgaWQ9ImxpbmtfVUM2XyYjMTA1OTsmIzEwNzY7JiMxMDcyOyYjMTA4MzsmIzEwNzc7JiMxMDg1OyYjMTA4MDsmIzEwNzc7ICYjMTA4NjsmIzEwNzM7JiMxMDg2OyYjMTA4ODsmIzEwOTE7JiMxMDc2OyYjMTA4NjsmIzEwNzQ7JiMxMDcyOyYjMTA4NTsmIzEwODA7JiMxMTAzOyAmIzEwODA7JiMxMDc5OyAmIzEwODk7JiMxMDgwOyYjMTA4OTsmIzEwOTA7JiMxMDc3OyYjMTA4NDsmIzEwOTk7Ij48cGF0aCBkPSJNNTA3LjY0LDgyNi41NyBDNTQyLjcxLDgyMS45MyA1ODEuNjcsODExLjg2IDYxMiw3OTEgQzY1My40NSw3NjIuNDggNjMwLjY5LDcyMy43MiA2NzIsNjk1IEM3MDAuMjksNjc1LjM0IDcyOS4zOTA1LDY2NS4wNDY0IDc2My4wNDA1LDY1OC40OTY0ICIgZmlsbD0ibm9uZSIgaWQ9IlVDNi10by0mIzEwNTk7JiMxMDc2OyYjMTA3MjsmIzEwODM7JiMxMDc3OyYjMTA4NTsmIzEwODA7JiMxMDc3OyAmIzEwODY7JiMxMDczOyYjMTA4NjsmIzEwODg7JiMxMDkxOyYjMTA3NjsmIzEwODY7JiMxMDc0OyYjMTA3MjsmIzEwODU7JiMxMDgwOyYjMTEwMzsgJiMxMDgwOyYjMTA3OTsgJiMxMDg5OyYjMTA4MDsmIzEwODk7JiMxMDkwOyYjMTA3NzsmIzEwODQ7JiMxMDk5OyIgc3R5bGU9InN0cm9rZTojMTgxODE4O3N0cm9rZS13aWR0aDoxLjA7Ii8+PHBvbHlnb24gZmlsbD0iIzE4MTgxOCIgcG9pbnRzPSI3NjguOTMsNjU3LjM1LDc1OS4zMzE1LDY1NS4xNDMzLDc2NC4wMjIxLDY1OC4zMDUzLDc2MC44NjAxLDY2Mi45OTU5LDc2OC45Myw2NTcuMzUiIHN0eWxlPSJzdHJva2U6IzE4MTgxODtzdHJva2Utd2lkdGg6MS4wOyIvPjwvZz48IS0tbGluayBNYW5hZ2VyIHRvIFVDNy0tPjxnIGlkPSJsaW5rX01hbmFnZXJfVUM3Ij48cGF0aCBkPSJNMTExLjU5LDQ3OCBDMTUzLjY2LDQ3OCAyMzcuMDQsNDc4IDMwNS44Myw0NzggIiBmaWxsPSJub25lIiBpZD0iTWFuYWdlci1VQzciIHN0eWxlPSJzdHJva2U6IzE4MTgxODtzdHJva2Utd2lkdGg6MS4wOyIvPjwvZz48IS0tbGluayBNYW5hZ2VyIHRvIFVDOC0tPjxnIGlkPSJsaW5rX01hbmFnZXJfVUM4Ij48cGF0aCBkPSJNMTExLjc5LDQ4OS43NCBDMTM0LjMsNDk5LjA0IDE2Ny4yNiw1MTEuNzkgMTk3LDUyMCBDMjQxLjQyLDUzMi4yNiAyOTEuOTksNTQxLjc5IDMzMy4yNyw1NDguNDYgIiBmaWxsPSJub25lIiBpZD0iTWFuYWdlci1VQzgiIHN0eWxlPSJzdHJva2U6IzE4MTgxODtzdHJva2Utd2lkdGg6MS4wOyIvPjwvZz48IS0tbGluayBNYW5hZ2VyIHRvIFVDOS0tPjxnIGlkPSJsaW5rX01hbmFnZXJfVUM5Ij48cGF0aCBkPSJNMTA1LjcyLDQ0MC40NiBDMTI1LjI5LDQwOS40NiAxNTcuMywzNjYuOTcgMTk3LDM0NCBDMjM3LjYxLDMyMC41MSAyODkuMDEsMzEwLjU0IDMzMS43NiwzMDYuNTQgIiBmaWxsPSJub25lIiBpZD0iTWFuYWdlci1VQzkiIHN0eWxlPSJzdHJva2U6IzE4MTgxODtzdHJva2Utd2lkdGg6MS4wOyIvPjwvZz48IS0tbGluayBVQzcgdG8gPz8/Pz8/Pz8/ID8/Pz8/Pz8/Pz8gPz8/Pz8/Py0tPjxnIGlkPSJsaW5rX1VDN18mIzEwNDM7JiMxMDc3OyYjMTA4NTsmIzEwNzc7JiMxMDg4OyYjMTA3MjsmIzEwOTQ7JiMxMDgwOyYjMTEwMzsgJiMxMDg4OyYjMTA3NzsmIzEwNzU7JiMxMDkxOyYjMTA4MzsmIzExMDM7JiMxMDg4OyYjMTA4NTsmIzEwOTk7JiMxMDkzOyAmIzEwODY7JiMxMDkwOyYjMTA5NTsmIzEwNzc7JiMxMDkwOyYjMTA4NjsmIzEwNzQ7Ij48cGF0aCBkPSJNNTI3LjAyLDQ3OC4yMyBDNjAyLjI4LDQ3OC4zOSA2OTUuOTMsNDc4LjU4NzQgNzcxLjkzLDQ3OC43NDc0ICIgZmlsbD0ibm9uZSIgaWQ9IlVDNy10by0mIzEwNDM7JiMxMDc3OyYjMTA4NTsmIzEwNzc7JiMxMDg4OyYjMTA3MjsmIzEwOTQ7JiMxMDgwOyYjMTEwMzsgJiMxMDg4OyYjMTA3NzsmIzEwNzU7JiMxMDkxOyYjMTA4MzsmIzExMDM7JiMxMDg4OyYjMTA4NTsmIzEwOTk7JiMxMDkzOyAmIzEwODY7JiMxMDkwOyYjMTA5NTsmIzEwNzc7JiMxMDkwOyYjMTA4NjsmIzEwNzQ7IiBzdHlsZT0ic3Ryb2tlOiMxODE4MTg7c3Ryb2tlLXdpZHRoOjEuMDtzdHJva2UtZGFzaGFycmF5OjcuMCw3LjA7Ii8+PHBvbHlnb24gZmlsbD0iIzE4MTgxOCIgcG9pbnRzPSI3NzcuOTMsNDc4Ljc2LDc2OC45Mzg0LDQ3NC43NDExLDc3Mi45Myw0NzguNzQ5NSw3NjguOTIxNiw0ODIuNzQxLDc3Ny45Myw0NzguNzYiIHN0eWxlPSJzdHJva2U6IzE4MTgxODtzdHJva2Utd2lkdGg6MS4wOyIvPjwvZz48IS0tbGluayBVQzggdG8gPz8/Pz8/Pz8gPz8/Pz8/PyA/Pz8/Pz8/Pz8tLT48ZyBpZD0ibGlua19VQzhfJiMxMDU1OyYjMTA4ODsmIzEwODY7JiMxMDg5OyYjMTA4NDsmIzEwODY7JiMxMDkwOyYjMTA4ODsgJiMxMDgwOyYjMTA4OTsmIzEwOTA7JiMxMDg2OyYjMTA4ODsmIzEwODA7JiMxMDgwOyAmIzEwODA7JiMxMDc5OyYjMTA4NDsmIzEwNzc7JiMxMDg1OyYjMTA3NzsmIzEwODU7JiMxMDgwOyYjMTA4MTsiPjxwYXRoIGQ9Ik01MTQuMTgsNTYwLjYxIEM1OTIuODksNTYxLjExIDY5Ny44NTAxLDU2MS43NzE1IDc3OC45ODAxLDU2Mi4yOTE1ICIgZmlsbD0ibm9uZSIgaWQ9IlVDOC10by0mIzEwNTU7JiMxMDg4OyYjMTA4NjsmIzEwODk7JiMxMDg0OyYjMTA4NjsmIzEwOTA7JiMxMDg4OyAmIzEwODA7JiMxMDg5OyYjMTA5MDsmIzEwODY7JiMxMDg4OyYjMTA4MDsmIzEwODA7ICYjMTA4MDsmIzEwNzk7JiMxMDg0OyYjMTA3NzsmIzEwODU7JiMxMDc3OyYjMTA4NTsmIzEwODA7JiMxMDgxOyIgc3R5bGU9InN0cm9rZTojMTgxODE4O3N0cm9rZS13aWR0aDoxLjA7c3Ryb2tlLWRhc2hhcnJheTo3LjAsNy4wOyIvPjxwb2x5Z29uIGZpbGw9IiMxODE4MTgiIHBvaW50cz0iNzg0Ljk4LDU2Mi4zMyw3NzYuMDA1OCw1NTguMjcyNCw3NzkuOTgwMSw1NjIuMjk4LDc3NS45NTQ1LDU2Ni4yNzIyLDc4NC45OCw1NjIuMzMiIHN0eWxlPSJzdHJva2U6IzE4MTgxODtzdHJva2Utd2lkdGg6MS4wOyIvPjwvZz48IS0tbGluayBVQzkgdG8gPz8/Pz8/Pz8/PyA/Pz8/ID8/Pz8/Pz8tLT48ZyBpZD0ibGlua19VQzlfJiMxMDUzOyYjMTA3MjsmIzEwNzk7JiMxMDg1OyYjMTA3MjsmIzEwOTU7JiMxMDc3OyYjMTA4NTsmIzEwODA7JiMxMDc3OyAmIzEwODc7JiMxMDg4OyYjMTA3MjsmIzEwNzQ7ICYjMTA3NjsmIzEwODY7JiMxMDg5OyYjMTA5MDsmIzEwOTE7JiMxMDg3OyYjMTA3MjsiPjxwYXRoIGQ9Ik01MDEuNjEsMzA0LjgyIEM1ODMuNTksMzA0LjY1IDcwMi4xNSwzMDQuNDAzMiA3ODguMjEsMzA0LjIxMzIgIiBmaWxsPSJub25lIiBpZD0iVUM5LXRvLSYjMTA1MzsmIzEwNzI7JiMxMDc5OyYjMTA4NTsmIzEwNzI7JiMxMDk1OyYjMTA3NzsmIzEwODU7JiMxMDgwOyYjMTA3NzsgJiMxMDg3OyYjMTA4ODsmIzEwNzI7JiMxMDc0OyAmIzEwNzY7JiMxMDg2OyYjMTA4OTsmIzEwOTA7JiMxMDkxOyYjMTA4NzsmIzEwNzI7IiBzdHlsZT0ic3Ryb2tlOiMxODE4MTg7c3Ryb2tlLXdpZHRoOjEuMDtzdHJva2UtZGFzaGFycmF5OjcuMCw3LjA7Ii8+PHBvbHlnb24gZmlsbD0iIzE4MTgxOCIgcG9pbnRzPSI3OTQuMjEsMzA0LjIsNzg1LjIwMTIsMzAwLjIxOTksNzg5LjIxLDMwNC4yMTEsNzg1LjIxODksMzA4LjIxOTksNzk0LjIxLDMwNC4yIiBzdHlsZT0ic3Ryb2tlOiMxODE4MTg7c3Ryb2tlLXdpZHRoOjEuMDsiLz48L2c+PCEtLWxpbmsgU3lzdGVtQWRtaW4gdG8gVUMxMC0tPjxnIGlkPSJsaW5rX1N5c3RlbUFkbWluX1VDMTAiPjxwYXRoIGQ9Ik0xMjkuMTksOTI0LjU1IEMxNDkuNjQsOTMyLjE1IDE3NC4zMyw5NDAuNzIgMTk3LDk0NyBDMjM3LjA5LDk1OC4xIDI4Mi4wNCw5NjcuNjQgMzIwLjcsOTc0Ljk3ICIgZmlsbD0ibm9uZSIgaWQ9IlN5c3RlbUFkbWluLVVDMTAiIHN0eWxlPSJzdHJva2U6IzE4MTgxODtzdHJva2Utd2lkdGg6MS4wOyIvPjwvZz48IS0tbGluayBTeXN0ZW1BZG1pbiB0byBVQzExLS0+PGcgaWQ9ImxpbmtfU3lzdGVtQWRtaW5fVUMxMSI+PHBhdGggZD0iTTEyOS4xNCw5MDcgQzE3Ni42MSw5MDcgMjUzLjI0LDkwNyAzMTUuMjksOTA3ICIgZmlsbD0ibm9uZSIgaWQ9IlN5c3RlbUFkbWluLVVDMTEiIHN0eWxlPSJzdHJva2U6IzE4MTgxODtzdHJva2Utd2lkdGg6MS4wOyIvPjwvZz48IS0tbGluayBVQzEwIHRvID8/Pz8/Pz8/Pz8gPyBDUk0tLT48ZyBpZD0ibGlua19VQzEwXyYjMTA0ODsmIzEwODU7JiMxMDkwOyYjMTA3NzsmIzEwNzU7JiMxMDg4OyYjMTA3MjsmIzEwOTQ7JiMxMDgwOyYjMTEwMzsgJiMxMDg5OyBDUk0iPjxwYXRoIGQ9Ik00NzMuNjcsMTAxNC40OCBDNTI0LjYzLDEwMzQuOTYgNjAyLjIzLDEwNjQuMTEgNjcyLDEwODIgQzcyMi4xNywxMDk0Ljg2IDc3NC4xMTk2LDExMDMuMSA4MTcuNzc5NiwxMTA4Ljc1ICIgZmlsbD0ibm9uZSIgaWQ9IlVDMTAtdG8tJiMxMDQ4OyYjMTA4NTsmIzEwOTA7JiMxMDc3OyYjMTA3NTsmIzEwODg7JiMxMDcyOyYjMTA5NDsmIzEwODA7JiMxMTAzOyAmIzEwODk7IENSTSIgc3R5bGU9InN0cm9rZTojMTgxODE4O3N0cm9rZS13aWR0aDoxLjA7Ii8+PHBvbHlnb24gZmlsbD0iIzE4MTgxOCIgcG9pbnRzPSI4MjMuNzMsMTEwOS41Miw4MTUuMzE3OCwxMTA0LjM5OCw4MTguNzcxMywxMTA4Ljg3ODMsODE0LjI5MTEsMTExMi4zMzE5LDgyMy43MywxMTA5LjUyIiBzdHlsZT0ic3Ryb2tlOiMxODE4MTg7c3Ryb2tlLXdpZHRoOjEuMDsiLz48L2c+PCEtLWxpbmsgVUMxMCB0byA/Pz8/Pz8/Pz8/ID8gRVJQLS0+PGcgaWQ9ImxpbmtfVUMxMF8mIzEwNDg7JiMxMDg1OyYjMTA5MDsmIzEwNzc7JiMxMDc1OyYjMTA4ODsmIzEwNzI7JiMxMDk0OyYjMTA4MDsmIzExMDM7ICYjMTA4OTsgRVJQIj48cGF0aCBkPSJNNTIwLjI0LDk3Ny41NSBDNjEzLjEzLDk2NS4zOCA3NDEuMTAwOCw5NDguNjI5IDgxOS45OTA4LDkzOC4yOTkgIiBmaWxsPSJub25lIiBpZD0iVUMxMC10by0mIzEwNDg7JiMxMDg1OyYjMTA5MDsmIzEwNzc7JiMxMDc1OyYjMTA4ODsmIzEwNzI7JiMxMDk0OyYjMTA4MDsmIzExMDM7ICYjMTA4OTsgRVJQIiBzdHlsZT0ic3Ryb2tlOiMxODE4MTg7c3Ryb2tlLXdpZHRoOjEuMDsiLz48cG9seWdvbiBmaWxsPSIjMTgxODE4IiBwb2ludHM9IjgyNS45NCw5MzcuNTIsODE2LjQ5NjgsOTM0LjcyMjQsODIwLjk4MjMsOTM4LjE2OTIsODE3LjUzNTUsOTQyLjY1NDYsODI1Ljk0LDkzNy41MiIgc3R5bGU9InN0cm9rZTojMTgxODE4O3N0cm9rZS13aWR0aDoxLjA7Ii8+PC9nPjwhLS1saW5rIFVDMTEgdG8gPz8/Pz8/Pz8/Pz8/Pz8gPz8/Pz8/Pz8/PyA/Py0tPjxnIGlkPSJsaW5rX1VDMTFfJiMxMDQwOyYjMTA3NDsmIzEwOTA7JiMxMDg2OyYjMTA4NDsmIzEwNzI7JiMxMDkwOyYjMTA4MDsmIzEwOTU7JiMxMDc3OyYjMTA4OTsmIzEwODI7JiMxMDg2OyYjMTA3NzsgJiMxMDg2OyYjMTA3MzsmIzEwODU7JiMxMDg2OyYjMTA3NDsmIzEwODM7JiMxMDc3OyYjMTA4NTsmIzEwODA7JiMxMDc3OyAmIzEwNTU7JiMxMDU0OyI+PHBhdGggZD0iTTUwNi4wMSw4OTYuNTMgQzU4Ni45OCw4ODYuOTYgNzAwLjcwMTUsODczLjUwNDcgNzg1LjA4MTUsODYzLjUyNDcgIiBmaWxsPSJub25lIiBpZD0iVUMxMS10by0mIzEwNDA7JiMxMDc0OyYjMTA5MDsmIzEwODY7JiMxMDg0OyYjMTA3MjsmIzEwOTA7JiMxMDgwOyYjMTA5NTsmIzEwNzc7JiMxMDg5OyYjMTA4MjsmIzEwODY7JiMxMDc3OyAmIzEwODY7JiMxMDczOyYjMTA4NTsmIzEwODY7JiMxMDc0OyYjMTA4MzsmIzEwNzc7JiMxMDg1OyYjMTA4MDsmIzEwNzc7ICYjMTA1NTsmIzEwNTQ7IiBzdHlsZT0ic3Ryb2tlOiMxODE4MTg7c3Ryb2tlLXdpZHRoOjEuMDsiLz48cG9seWdvbiBmaWxsPSIjMTgxODE4IiBwb2ludHM9Ijc5MS4wNCw4NjIuODIsNzgxLjYzMjUsODU5LjkwNDgsNzg2LjA3NDYsODYzLjQwNzMsNzgyLjU3MjEsODY3Ljg0OTQsNzkxLjA0LDg2Mi44MiIgc3R5bGU9InN0cm9rZTojMTgxODE4O3N0cm9rZS13aWR0aDoxLjA7Ii8+PC9nPjwhLS1saW5rIFBDIHRvIFVDX1JlZy0tPjxnIGlkPSJsaW5rX1BDX1VDX1JlZyI+PHBhdGggZD0iTTE0My42OCwxMjMxLjgyIEMxOTEuNDcsMTIzMS42OCAyNTMuNzcsMTIzMS40ODgyIDMwOS45NSwxMjMxLjMxODIgIiBmaWxsPSJub25lIiBpZD0iUEMtdG8tVUNfUmVnIiBzdHlsZT0ic3Ryb2tlOiMxODE4MTg7c3Ryb2tlLXdpZHRoOjEuMDsiLz48cG9seWdvbiBmaWxsPSIjMTgxODE4IiBwb2ludHM9IjMxNS45NSwxMjMxLjMsMzA2LjkzNzksMTIyNy4zMjczLDMxMC45NSwxMjMxLjMxNTEsMzA2Ljk2MjEsMTIzNS4zMjcyLDMxNS45NSwxMjMxLjMiIHN0eWxlPSJzdHJva2U6IzE4MTgxODtzdHJva2Utd2lkdGg6MS4wOyIvPjwvZz48IS0tbGluayBNIHRvIFVDX1JlZy0tPjxnIGlkPSJsaW5rX01fVUNfUmVnIj48cGF0aCBkPSJNMTA4LjM3LDEzMjUuNjggQzEzNS42NiwxMzA3LjMgMTc4Ljg4LDEyNzkuMDUgMTk3LDEyNzIgQzIzNy41NiwxMjU2LjIyIDI3OC44Mzc0LDEyNDcuMjg3MSAzMTguOTc3NCwxMjQxLjIxNzEgIiBmaWxsPSJub25lIiBpZD0iTS10by1VQ19SZWciIHN0eWxlPSJzdHJva2U6IzE4MTgxODtzdHJva2Utd2lkdGg6MS4wOyIvPjxwb2x5Z29uIGZpbGw9IiMxODE4MTgiIHBvaW50cz0iMzI0LjkxLDEyNDAuMzIsMzE1LjQxMzEsMTIzNy43MTA3LDMxOS45NjYyLDEyNDEuMDY3NiwzMTYuNjA5MywxMjQ1LjYyMDcsMzI0LjkxLDEyNDAuMzIiIHN0eWxlPSJzdHJva2U6IzE4MTgxODtzdHJva2Utd2lkdGg6MS4wOyIvPjwvZz48IS0tbGluayBNIHRvIFVDX1RyYWNrLS0+PGcgaWQ9ImxpbmtfTV9VQ19UcmFjayI+PHBhdGggZD0iTTEwOC4wOCwxMzU2Ljk0IEMxMjQuODcsMTM2Ny43NCAxNDcuODYsMTM4Mi44NyAxNjcuNSwxMzk3IEMxODAuOTksMTQwNi43MSAxODEuNzMsMTQxMy40MyAxOTcsMTQyMCBDMjQ2LjM0LDE0NDEuMjEgMzAxLjA3MTUsMTQ0OC43MjkyIDM0NS45NzE1LDE0NTEuNTA5MiAiIGZpbGw9Im5vbmUiIGlkPSJNLXRvLVVDX1RyYWNrIiBzdHlsZT0ic3Ryb2tlOiMxODE4MTg7c3Ryb2tlLXdpZHRoOjEuMDsiLz48cG9seWdvbiBmaWxsPSIjMTgxODE4IiBwb2ludHM9IjM1MS45NiwxNDUxLjg4LDM0My4yMjQ0LDE0NDcuMzMxNSwzNDYuOTY5NiwxNDUxLjU3MSwzNDIuNzMsMTQ1NS4zMTYyLDM1MS45NiwxNDUxLjg4IiBzdHlsZT0ic3Ryb2tlOiMxODE4MTg7c3Ryb2tlLXdpZHRoOjEuMDsiLz48L2c+PCEtLWxpbmsgTSB0byBVQ19SZXBvcnRzLS0+PGcgaWQ9ImxpbmtfTV9VQ19SZXBvcnRzIj48cGF0aCBkPSJNMTA4LjA0LDEzNDQuOTIgQzE1Ni40OCwxMzUwLjkyIDI2My4wODU1LDEzNjQuMTIyOSAzMzcuNzI1NSwxMzczLjM2MjkgIiBmaWxsPSJub25lIiBpZD0iTS10by1VQ19SZXBvcnRzIiBzdHlsZT0ic3Ryb2tlOiMxODE4MTg7c3Ryb2tlLXdpZHRoOjEuMDsiLz48cG9seWdvbiBmaWxsPSIjMTgxODE4IiBwb2ludHM9IjM0My42OCwxMzc0LjEsMzM1LjIzOTYsMTM2OS4wMjQ2LDMzOC43MTc5LDEzNzMuNDg1NywzMzQuMjU2OCwxMzc2Ljk2NCwzNDMuNjgsMTM3NC4xIiBzdHlsZT0ic3Ryb2tlOiMxODE4MTg7c3Ryb2tlLXdpZHRoOjEuMDsiLz48L2c+PCEtLWxpbmsgTSB0byBVQ19FZGl0LS0+PGcgaWQ9ImxpbmtfTV9VQ19FZGl0Ij48cGF0aCBkPSJNMTA4LjA0LDEzMzkuNjUgQzE1NC44NiwxMzM0Ljk5IDI1NS41ODk2LDEzMjQuOTQ1NSAzMzAuMDc5NiwxMzE3LjUxNTUgIiBmaWxsPSJub25lIiBpZD0iTS10by1VQ19FZGl0IiBzdHlsZT0ic3Ryb2tlOiMxODE4MTg7c3Ryb2tlLXdpZHRoOjEuMDsiLz48cG9seWdvbiBmaWxsPSIjMTgxODE4IiBwb2ludHM9IjMzNi4wNSwxMzE2LjkyLDMyNi42OTc0LDEzMTMuODMzLDMzMS4wNzQ3LDEzMTcuNDE2MywzMjcuNDkxNCwxMzIxLjc5MzUsMzM2LjA1LDEzMTYuOTIiIHN0eWxlPSJzdHJva2U6IzE4MTgxODtzdHJva2Utd2lkdGg6MS4wOyIvPjwvZz48IS0tbGluayBUUyB0byBVQ19UcmFjay0tPjxnIGlkPSJsaW5rX1RTX1VDX1RyYWNrIj48cGF0aCBkPSJNMTMyLjYzLDE0NTIuMTUgQzE5MC41NCwxNDUyLjMyIDI4MS45NiwxNDUyLjU5MTMgMzQ2LDE0NTIuNzkxMyAiIGZpbGw9Im5vbmUiIGlkPSJUUy10by1VQ19UcmFjayIgc3R5bGU9InN0cm9rZTojMTgxODE4O3N0cm9rZS13aWR0aDoxLjA7Ii8+PHBvbHlnb24gZmlsbD0iIzE4MTgxOCIgcG9pbnRzPSIzNTIsMTQ1Mi44MSwzNDMuMDEyNSwxNDQ4Ljc4MTksMzQ3LDE0NTIuNzk0NCwzNDIuOTg3NiwxNDU2Ljc4MTksMzUyLDE0NTIuODEiIHN0eWxlPSJzdHJva2U6IzE4MTgxODtzdHJva2Utd2lkdGg6MS4wOyIvPjwvZz48IS0tbGluayBUUyB0byBVQ19EZWxldGUtLT48ZyBpZD0ibGlua19UU19VQ19EZWxldGUiPjxwYXRoIGQ9Ik0xMzIuNiwxNDY3Ljk0IEMxNTIuNCwxNDc0LjEzIDE3NS42NiwxNDgwLjk0IDE5NywxNDg2IEMyNDMuNzQsMTQ5Ny4wOCAyOTAuODgyOSwxNTA1LjQ1NzUgMzMzLjAyMjksMTUxMi4wODc1ICIgZmlsbD0ibm9uZSIgaWQ9IlRTLXRvLVVDX0RlbGV0ZSIgc3R5bGU9InN0cm9rZTojMTgxODE4O3N0cm9rZS13aWR0aDoxLjA7Ii8+PHBvbHlnb24gZmlsbD0iIzE4MTgxOCIgcG9pbnRzPSIzMzguOTUsMTUxMy4wMiwzMzAuNjgxLDE1MDcuNjY5OCwzMzQuMDEwOCwxNTEyLjI0MjksMzI5LjQzNzcsMTUxNS41NzI2LDMzOC45NSwxNTEzLjAyIiBzdHlsZT0ic3Ryb2tlOiMxODE4MTg7c3Ryb2tlLXdpZHRoOjEuMDsiLz48L2c+PCEtLWxpbmsgU0EgdG8gVUNfRGVsZXRlLS0+PGcgaWQ9ImxpbmtfU0FfVUNfRGVsZXRlIj48cGF0aCBkPSJNMTIzLjEyLDE1NTcuNTcgQzE3NC43LDE1NTEuNjQgMjYxLjQzOTEsMTU0MS42ODM4IDMyOC42NDkxLDE1MzMuOTczOCAiIGZpbGw9Im5vbmUiIGlkPSJTQS10by1VQ19EZWxldGUiIHN0eWxlPSJzdHJva2U6IzE4MTgxODtzdHJva2Utd2lkdGg6MS4wOyIvPjxwb2x5Z29uIGZpbGw9IiMxODE4MTgiIHBvaW50cz0iMzM0LjYxLDE1MzMuMjksMzI1LjIxMjgsMTUzMC4zNDE4LDMyOS42NDI2LDE1MzMuODU5OCwzMjYuMTI0NSwxNTM4LjI4OTYsMzM0LjYxLDE1MzMuMjkiIHN0eWxlPSJzdHJva2U6IzE4MTgxODtzdHJva2Utd2lkdGg6MS4wOyIvPjwvZz48IS0tbGluayBVQ19UcmFjayB0byA/Pz8/Pz8/Pz8/Pz8gPz8/Pz8/Pz8/Pz8/Pz8gPyA/Pz8/Pz8/Pz8gPz8/Pz8/Pz8/Pz8/LS0+PGcgaWQ9ImxpbmtfVUNfVHJhY2tfJiMxMDU0OyYjMTA5MDsmIzEwODk7JiMxMDgzOyYjMTA3NzsmIzEwNzg7JiMxMDgwOyYjMTA3NDsmIzEwNzI7JiMxMDg1OyYjMTA4MDsmIzEwNzc7ICYjMTA4NDsmIzEwNzc7JiMxMDg5OyYjMTA5MDsmIzEwODY7JiMxMDg3OyYjMTA4NjsmIzEwODM7JiMxMDg2OyYjMTA3ODsmIzEwNzc7JiMxMDg1OyYjMTA4MDsmIzExMDM7ICYjMTA4MDsgJiMxMDg5OyYjMTA4NjsmIzEwODk7JiMxMDkwOyYjMTA4NjsmIzExMDM7JiMxMDg1OyYjMTA4MDsmIzExMDM7ICYjMTA4NjsmIzEwNzM7JiMxMDg2OyYjMTA4ODsmIzEwOTE7JiMxMDc2OyYjMTA4NjsmIzEwNzQ7JiMxMDcyOyYjMTA4NTsmIzEwODA7JiMxMTAzOyI+PHBhdGggZD0iTTQ3NS4xNiwxNDU5LjQ4IEM1MTguNjMsMTQ2MC45NiA1NzYuNjMsMTQ1NS4xIDYxMiwxNDIwIEM3MjAuMjksMTMxMi41MyA1NjguOTQsMTE5NC41IDY3MiwxMDgyIEM2ODYuOSwxMDY1Ljc0IDcwMC4yMzk2LDEwNTYuMTQ0IDcyMC42MTk2LDEwNDcuMzY0ICIgZmlsbD0ibm9uZSIgaWQ9IlVDX1RyYWNrLXRvLSYjMTA1NDsmIzEwOTA7JiMxMDg5OyYjMTA4MzsmIzEwNzc7JiMxMDc4OyYjMTA4MDsmIzEwNzQ7JiMxMDcyOyYjMTA4NTsmIzEwODA7JiMxMDc3OyAmIzEwODQ7JiMxMDc3OyYjMTA4OTsmIzEwOTA7JiMxMDg2OyYjMTA4NzsmIzEwODY7JiMxMDgzOyYjMTA4NjsmIzEwNzg7JiMxMDc3OyYjMTA4NTsmIzEwODA7JiMxMTAzOyAmIzEwODA7ICYjMTA4OTsmIzEwODY7JiMxMDg5OyYjMTA5MDsmIzEwODY7JiMxMTAzOyYjMTA4NTsmIzEwODA7JiMxMTAzOyAmIzEwODY7JiMxMDczOyYjMTA4NjsmIzEwODg7JiMxMDkxOyYjMTA3NjsmIzEwODY7JiMxMDc0OyYjMTA3MjsmIzEwODU7JiMxMDgwOyYjMTEwMzsiIHN0eWxlPSJzdHJva2U6IzE4MTgxODtzdHJva2Utd2lkdGg6MS4wO3N0cm9rZS1kYXNoYXJyYXk6Ny4wLDcuMDsiLz48cG9seWdvbiBmaWxsPSIjMTgxODE4IiBwb2ludHM9IjcyNi4xMywxMDQ0Ljk5LDcxNi4yODE4LDEwNDQuODc3Myw3MjEuNTM4LDEwNDYuOTY4Myw3MTkuNDQ3MSwxMDUyLjIyNDUsNzI2LjEzLDEwNDQuOTkiIHN0eWxlPSJzdHJva2U6IzE4MTgxODtzdHJva2Utd2lkdGg6MS4wOyIvPjwvZz48IS0tbGluayBVQ19SZXBvcnRzIHRvID8/Pz8/PyA/ID8/Pz8/Pz8/PyA/PyA/Pz8/Pz8/Pz8/Pz8/ID8/Pz8/Pz8/Pz8/Py0tPjxnIGlkPSJsaW5rX1VDX1JlcG9ydHNfJiMxMDU0OyYjMTA5MDsmIzEwOTU7JiMxMDc3OyYjMTA5MDsmIzEwOTk7ICYjMTA4MDsgJiMxMDcyOyYjMTA4NTsmIzEwNzI7JiMxMDgzOyYjMTA4MDsmIzEwOTA7JiMxMDgwOyYjMTA4MjsmIzEwNzI7ICYjMTA4NzsmIzEwODY7ICYjMTA4MDsmIzEwODk7JiMxMDg3OyYjMTA4NjsmIzEwODM7JiMxMTAwOyYjMTA3OTsmIzEwODY7JiMxMDc0OyYjMTA3MjsmIzEwODU7JiMxMDgwOyYjMTEwMjsgJiMxMDg2OyYjMTA3MzsmIzEwODY7JiMxMDg4OyYjMTA5MTsmIzEwNzY7JiMxMDg2OyYjMTA3NDsmIzEwNzI7JiMxMDg1OyYjMTA4MDsmIzExMDM7Ij48cGF0aCBkPSJNNDk0LjIzLDEzODkuMDkgQzUzNC45NSwxMzg3LjkgNTgyLjUzLDEzNzguNjggNjEyLDEzNDcgQzc3Ni4xOCwxMTcwLjUzIDUxMy44NSw5ODkuOSA2NzIsODA4IEM2ODcuMjYsNzkwLjQ1IDcwMS42MTczLDc4MC4yNzg3IDcyMy4yMzczLDc3MS41Mzg3ICIgZmlsbD0ibm9uZSIgaWQ9IlVDX1JlcG9ydHMtdG8tJiMxMDU0OyYjMTA5MDsmIzEwOTU7JiMxMDc3OyYjMTA5MDsmIzEwOTk7ICYjMTA4MDsgJiMxMDcyOyYjMTA4NTsmIzEwNzI7JiMxMDgzOyYjMTA4MDsmIzEwOTA7JiMxMDgwOyYjMTA4MjsmIzEwNzI7ICYjMTA4NzsmIzEwODY7ICYjMTA4MDsmIzEwODk7JiMxMDg3OyYjMTA4NjsmIzEwODM7JiMxMTAwOyYjMTA3OTsmIzEwODY7JiMxMDc0OyYjMTA3MjsmIzEwODU7JiMxMDgwOyYjMTEwMjsgJiMxMDg2OyYjMTA3MzsmIzEwODY7JiMxMDg4OyYjMTA5MTsmIzEwNzY7JiMxMDg2OyYjMTA3NDsmIzEwNzI7JiMxMDg1OyYjMTA4MDsmIzExMDM7IiBzdHlsZT0ic3Ryb2tlOiMxODE4MTg7c3Ryb2tlLXdpZHRoOjEuMDtzdHJva2UtZGFzaGFycmF5OjcuMCw3LjA7Ii8+PHBvbHlnb24gZmlsbD0iIzE4MTgxOCIgcG9pbnRzPSI3MjguOCw3NjkuMjksNzE4Ljk1NjksNzY4Ljk1NDcsNzI0LjE2NDQsNzcxLjE2MzksNzIxLjk1NTIsNzc2LjM3MTUsNzI4LjgsNzY5LjI5IiBzdHlsZT0ic3Ryb2tlOiMxODE4MTg7c3Ryb2tlLXdpZHRoOjEuMDsiLz48L2c+PCEtLVNSQz1bbExSREpqajA0Qnh4QUxRU28wNTQtRVRJMkxCS0l2NEdJU184SlBPRzRNQmFjNERMTElCeUxMTWdXakdCWG5QQS1tOGY0NjhXRUEtbVZnRkVwOHczdXBXRzJjc2JnN1h0dmxsY1Z3U2VMbnBYTUM4a3Y1U1RhSWxPQ2tpS2g5OUhOWWtLRGFwUk4xU1JQZFJEcENpdi0yemxNdmtiTkNlZ01oUHVaR2ZwbktxUDRqcWlvd25QWlhUelBLaVBYWk1wWmNORk1OUEVzYmhnUkg3SzM4RkVuUUJibzk5SkM4a2ZwUjlaaEtqUmM2S25lNHdLdnMtaGtoaHJ6dk1oUWtoNl9tbl9Mek1MSzB0dWw4UFZtX3k4THpTMzNCSFdiaTF1TGwtNmdsMnhLOVVneGN5NUNYY1BOSXFMaWNPbnhQV2hBcmhxOW1aaVdSMEJTN01fMGowa2loSEczcHV6azBCdzAyN3poa3A4elRkU1VnNmFyRy0xZW1hZzI1M25qX3FqTEdGM0ZVR3FDQ0hjQUwtSzg3VWd4eTZjZmdlOU8wNVc0bFYwam1FWE5FN2xhME5SVUVzZnR1Wlh4bTJ3Znl4MDBpR182MTNsM0c3X0VGbllLRnEwbUZDR3pKd0F6VEdObkIwNUVXc1hwYWJYRC1ndVl0UUh5eGlXVC1MTjRrWmVjckpvc1BZTnZqQ1BkU09NLVd5OExVT09aTjBTMHRQNXRPM005VFo1T0Flazg4UHJZZ083VU84MG1rLUlDa3ZvQTJpNFl0YXVxQVRDQzFQM0c0N3Rnd1g3MTkxanFEWjZzaTlLVzhVUTEyZ200TlE5OFNTWmE0U1dyVUpvT3NqUjQxdTg0TGNqS3R4TUNyMkNFWDUxX0dMSURPZTRPendsRmNjR1ZkVHAzR3M5R1NYYnVqeGhLTnFUVDVJN0prVlhNRHBYVURwWFgzd0NUNjA3SWtwVGZCdUJ6cnR4V2N4MENaWHZ5VllBZkVmcDFJTXQySEFWeUFFeEFKcDB6NkJRR2pLSXAzX3dWRm5UaE80UTBTeU95cG5WTF9Hazh3T1MzcjQtcTJTalliQUZQbGRvOERDNENwc3JWSFhrYWs3d3hIakNTMENacjl4SUM5SUNJMUVVV2FRMzAzS09wUkRwVzg4OTNkXzMtIC1KbDJOb3VVOTFaeGRHX0phTUd1N2NaTTVxQjlsSW01WjJvUmlKX0FxUU94WGU4QkdoQU1UWXYydnJXaThZQVliTGRaOVgtZDhmaHFrY3VtdmJzZXFzOXVNNEN3YlRqTndaOC11YTRXcW1wbzBhTlU5RjRqbGU4MTBGQ0NDMXR0MDZtM2Y2Wk5JaXdBOXNYZzdMYnlhWHRDeFN4LXIwMUJRZUNRNjl5cXBsQVdVaEYzVHgyYVVXeDBiTHJJX0xxNHd2UkpuMC16V0hjY3RpWDA0YVFGS1BSU2dKTnE0aWN4d1JVSUJqWk9kcjlCSXFhLVhJVE5yZmlZbVIzejUyVEtUd1FqQy00bm80dEtQVXg5LWV1T05wZWxWTlctYlI3cU43RFd4R1FoM0Z0UjhBQmdQMTRRQ0xSMjFydFJ0TVBURVd3aWhBYlB3RDY3ZURac1hqamVoeUJETjBCUGt2SjlOT0VYUVVrTzlweXZJTVB4c19QMkhHb0RjeERacm5WeGpXc0JEaWZfek1nNGMzQ3ZtaEVxeFFJdlBVb0Exczl5THpDS1BybjgxUFlGeEo3ZUpsakdfazAzQ2dhRXlObGxmYWlGSGl2QzA5UGRZRl92SmN6aXBfNC1lelVyM3kwXS0tPjwvZz48L3N2Zz4=;" vertex="1" parent="1">
            <mxGeometry x="-2420" y="-1450" width="896.15" height="1281" as="geometry" />
          </mxCell>
        </UserObject>
        <mxCell id="5qImYblmfIxGDf4tknQ0-4" style="edgeStyle=orthogonalEdgeStyle;rounded=0;orthogonalLoop=1;jettySize=auto;html=1;exitX=0.5;exitY=0.5;exitDx=0;exitDy=0;exitPerimeter=0;entryX=0;entryY=0.5;entryDx=0;entryDy=0;curved=1;" edge="1" parent="1" source="5qImYblmfIxGDf4tknQ0-6" target="5qImYblmfIxGDf4tknQ0-16">
          <mxGeometry relative="1" as="geometry" />
        </mxCell>
        <mxCell id="5qImYblmfIxGDf4tknQ0-5" style="edgeStyle=orthogonalEdgeStyle;rounded=0;orthogonalLoop=1;jettySize=auto;html=1;curved=1;" edge="1" parent="1" source="5qImYblmfIxGDf4tknQ0-6" target="5qImYblmfIxGDf4tknQ0-18">
          <mxGeometry relative="1" as="geometry" />
        </mxCell>
        <mxCell id="5qImYblmfIxGDf4tknQ0-6" value="Клиент" style="shape=umlActor;verticalLabelPosition=bottom;verticalAlign=top;html=1;outlineConnect=0;fontSize=22;" vertex="1" parent="1">
          <mxGeometry x="-1375" y="-1330" width="90" height="130" as="geometry" />
        </mxCell>
        <mxCell id="5qImYblmfIxGDf4tknQ0-7" style="edgeStyle=orthogonalEdgeStyle;rounded=0;orthogonalLoop=1;jettySize=auto;html=1;entryX=0;entryY=0.5;entryDx=0;entryDy=0;exitX=1;exitY=0.3333333333333333;exitDx=0;exitDy=0;exitPerimeter=0;curved=1;" edge="1" parent="1" source="5qImYblmfIxGDf4tknQ0-14" target="5qImYblmfIxGDf4tknQ0-18">
          <mxGeometry relative="1" as="geometry">
            <mxPoint x="-1190" y="-830" as="sourcePoint" />
            <Array as="points">
              <mxPoint x="-1250" y="-795" />
              <mxPoint x="-1170" y="-795" />
              <mxPoint x="-1170" y="-1215" />
            </Array>
          </mxGeometry>
        </mxCell>
        <mxCell id="5qImYblmfIxGDf4tknQ0-8" style="edgeStyle=orthogonalEdgeStyle;rounded=0;orthogonalLoop=1;jettySize=auto;html=1;entryX=0;entryY=0.5;entryDx=0;entryDy=0;curved=1;" edge="1" parent="1" source="5qImYblmfIxGDf4tknQ0-14" target="5qImYblmfIxGDf4tknQ0-22">
          <mxGeometry relative="1" as="geometry" />
        </mxCell>
        <mxCell id="5qImYblmfIxGDf4tknQ0-9" style="edgeStyle=orthogonalEdgeStyle;rounded=0;orthogonalLoop=1;jettySize=auto;html=1;entryX=0;entryY=0.5;entryDx=0;entryDy=0;curved=1;" edge="1" parent="1" source="5qImYblmfIxGDf4tknQ0-14" target="5qImYblmfIxGDf4tknQ0-28">
          <mxGeometry relative="1" as="geometry" />
        </mxCell>
        <mxCell id="5qImYblmfIxGDf4tknQ0-10" style="edgeStyle=orthogonalEdgeStyle;rounded=0;orthogonalLoop=1;jettySize=auto;html=1;entryX=0;entryY=0.5;entryDx=0;entryDy=0;curved=1;" edge="1" parent="1" source="5qImYblmfIxGDf4tknQ0-14" target="5qImYblmfIxGDf4tknQ0-30">
          <mxGeometry relative="1" as="geometry" />
        </mxCell>
        <mxCell id="5qImYblmfIxGDf4tknQ0-11" style="edgeStyle=orthogonalEdgeStyle;rounded=0;orthogonalLoop=1;jettySize=auto;html=1;entryX=0;entryY=0.5;entryDx=0;entryDy=0;curved=1;" edge="1" parent="1" source="5qImYblmfIxGDf4tknQ0-14" target="5qImYblmfIxGDf4tknQ0-26">
          <mxGeometry relative="1" as="geometry" />
        </mxCell>
        <mxCell id="5qImYblmfIxGDf4tknQ0-12" style="edgeStyle=orthogonalEdgeStyle;rounded=0;orthogonalLoop=1;jettySize=auto;html=1;entryX=0;entryY=0.5;entryDx=0;entryDy=0;curved=1;" edge="1" parent="1" source="5qImYblmfIxGDf4tknQ0-14" target="5qImYblmfIxGDf4tknQ0-24">
          <mxGeometry relative="1" as="geometry" />
        </mxCell>
        <mxCell id="5qImYblmfIxGDf4tknQ0-13" style="edgeStyle=orthogonalEdgeStyle;rounded=0;orthogonalLoop=1;jettySize=auto;html=1;entryX=0;entryY=0.5;entryDx=0;entryDy=0;curved=1;" edge="1" parent="1" source="5qImYblmfIxGDf4tknQ0-14" target="5qImYblmfIxGDf4tknQ0-32">
          <mxGeometry relative="1" as="geometry" />
        </mxCell>
        <mxCell id="5qImYblmfIxGDf4tknQ0-14" value="Менеджер" style="shape=umlActor;verticalLabelPosition=bottom;verticalAlign=top;html=1;outlineConnect=0;fontSize=22;" vertex="1" parent="1">
          <mxGeometry x="-1370" y="-860" width="80" height="130" as="geometry" />
        </mxCell>
        <mxCell id="5qImYblmfIxGDf4tknQ0-15" style="edgeStyle=orthogonalEdgeStyle;rounded=0;orthogonalLoop=1;jettySize=auto;html=1;entryX=0;entryY=0.5;entryDx=0;entryDy=0;curved=1;" edge="1" parent="1" source="5qImYblmfIxGDf4tknQ0-16" target="5qImYblmfIxGDf4tknQ0-20">
          <mxGeometry relative="1" as="geometry" />
        </mxCell>
        <mxCell id="5qImYblmfIxGDf4tknQ0-16" value="Регистрация оборудования через REST запросы" style="ellipse;whiteSpace=wrap;html=1;fontSize=20;" vertex="1" parent="1">
          <mxGeometry x="-1040" y="-1460" width="370" height="130" as="geometry" />
        </mxCell>
        <mxCell id="5qImYblmfIxGDf4tknQ0-17" style="edgeStyle=orthogonalEdgeStyle;rounded=0;orthogonalLoop=1;jettySize=auto;html=1;entryX=0;entryY=0.5;entryDx=0;entryDy=0;curved=1;" edge="1" parent="1" source="5qImYblmfIxGDf4tknQ0-18" target="5qImYblmfIxGDf4tknQ0-19">
          <mxGeometry relative="1" as="geometry" />
        </mxCell>
        <mxCell id="5qImYblmfIxGDf4tknQ0-18" value="Регистрация оборудования через графический интерфейс" style="ellipse;whiteSpace=wrap;html=1;fontSize=20;" vertex="1" parent="1">
          <mxGeometry x="-1090" y="-1280" width="450" height="130" as="geometry" />
        </mxCell>
        <mxCell id="5qImYblmfIxGDf4tknQ0-19" value="&lt;br&gt;&lt;span style=&quot;color: rgb(0, 0, 0); font-family: Helvetica; font-size: 20px; font-style: normal; font-variant-ligatures: normal; font-variant-caps: normal; font-weight: 400; letter-spacing: normal; orphans: 2; text-align: center; text-indent: 0px; text-transform: none; widows: 2; word-spacing: 0px; -webkit-text-stroke-width: 0px; white-space: normal; background-color: rgb(251, 251, 251); text-decoration-thickness: initial; text-decoration-style: initial; text-decoration-color: initial; display: inline !important; float: none;&quot;&gt;Регистрация оборудования при помощи графический интерфейс&lt;/span&gt;&lt;div&gt;&lt;br/&gt;&lt;/div&gt;" style="ellipse;whiteSpace=wrap;html=1;" vertex="1" parent="1">
          <mxGeometry x="-430" y="-1290" width="450" height="130" as="geometry" />
        </mxCell>
        <mxCell id="5qImYblmfIxGDf4tknQ0-20" value="&lt;span style=&quot;font-size: 20px;&quot;&gt;Регистрация оборудования при помощи REST запросы&lt;/span&gt;" style="ellipse;whiteSpace=wrap;html=1;" vertex="1" parent="1">
          <mxGeometry x="-380" y="-1460" width="370" height="130" as="geometry" />
        </mxCell>
        <mxCell id="5qImYblmfIxGDf4tknQ0-21" style="edgeStyle=orthogonalEdgeStyle;rounded=0;orthogonalLoop=1;jettySize=auto;html=1;entryX=0;entryY=0.5;entryDx=0;entryDy=0;curved=1;" edge="1" parent="1" source="5qImYblmfIxGDf4tknQ0-22" target="5qImYblmfIxGDf4tknQ0-37">
          <mxGeometry relative="1" as="geometry">
            <mxPoint x="-489.9999999999991" y="-1030" as="targetPoint" />
          </mxGeometry>
        </mxCell>
        <mxCell id="5qImYblmfIxGDf4tknQ0-63" value="Text" style="edgeLabel;html=1;align=center;verticalAlign=middle;resizable=0;points=[];" vertex="1" connectable="0" parent="5qImYblmfIxGDf4tknQ0-21">
          <mxGeometry x="0.1574" y="13" relative="1" as="geometry">
            <mxPoint x="-1" as="offset" />
          </mxGeometry>
        </mxCell>
        <mxCell id="5qImYblmfIxGDf4tknQ0-22" value="Управление доступом" style="ellipse;whiteSpace=wrap;html=1;dashed=1;fontSize=20;" vertex="1" parent="1">
          <mxGeometry x="-990" y="-1080" width="250" height="70" as="geometry" />
        </mxCell>
        <mxCell id="5qImYblmfIxGDf4tknQ0-23" style="edgeStyle=orthogonalEdgeStyle;rounded=0;orthogonalLoop=1;jettySize=auto;html=1;entryX=0;entryY=0.5;entryDx=0;entryDy=0;curved=1;" edge="1" parent="1" source="5qImYblmfIxGDf4tknQ0-24" target="5qImYblmfIxGDf4tknQ0-38">
          <mxGeometry relative="1" as="geometry" />
        </mxCell>
        <mxCell id="5qImYblmfIxGDf4tknQ0-24" value="Отчеты и аналитика использования" style="ellipse;whiteSpace=wrap;html=1;fontSize=20;" vertex="1" parent="1">
          <mxGeometry x="-995" y="-680" width="250" height="70" as="geometry" />
        </mxCell>
        <mxCell id="5qImYblmfIxGDf4tknQ0-25" style="edgeStyle=orthogonalEdgeStyle;rounded=0;orthogonalLoop=1;jettySize=auto;html=1;curved=1;" edge="1" parent="1" source="5qImYblmfIxGDf4tknQ0-26" target="5qImYblmfIxGDf4tknQ0-34">
          <mxGeometry relative="1" as="geometry" />
        </mxCell>
        <mxCell id="5qImYblmfIxGDf4tknQ0-26" value="Поиск истории изменений" style="ellipse;whiteSpace=wrap;html=1;fontSize=20;" vertex="1" parent="1">
          <mxGeometry x="-995" y="-780" width="240" height="70" as="geometry" />
        </mxCell>
        <mxCell id="5qImYblmfIxGDf4tknQ0-27" style="edgeStyle=orthogonalEdgeStyle;rounded=0;orthogonalLoop=1;jettySize=auto;html=1;curved=1;" edge="1" parent="1" source="5qImYblmfIxGDf4tknQ0-28" target="5qImYblmfIxGDf4tknQ0-36">
          <mxGeometry relative="1" as="geometry" />
        </mxCell>
        <mxCell id="5qImYblmfIxGDf4tknQ0-28" value="Изменение параметров оборудования" style="ellipse;whiteSpace=wrap;html=1;fontSize=20;" vertex="1" parent="1">
          <mxGeometry x="-990" y="-990" width="250" height="80" as="geometry" />
        </mxCell>
        <mxCell id="5qImYblmfIxGDf4tknQ0-29" style="edgeStyle=orthogonalEdgeStyle;rounded=0;orthogonalLoop=1;jettySize=auto;html=1;curved=1;" edge="1" parent="1" source="5qImYblmfIxGDf4tknQ0-30" target="5qImYblmfIxGDf4tknQ0-35">
          <mxGeometry relative="1" as="geometry" />
        </mxCell>
        <mxCell id="5qImYblmfIxGDf4tknQ0-30" value="Создание регулярных отчетов" style="ellipse;whiteSpace=wrap;html=1;fontSize=20;" vertex="1" parent="1">
          <mxGeometry x="-990" y="-890" width="250" height="70" as="geometry" />
        </mxCell>
        <mxCell id="5qImYblmfIxGDf4tknQ0-31" style="edgeStyle=orthogonalEdgeStyle;rounded=0;orthogonalLoop=1;jettySize=auto;html=1;entryX=0;entryY=0.5;entryDx=0;entryDy=0;curved=1;" edge="1" parent="1" source="5qImYblmfIxGDf4tknQ0-32" target="5qImYblmfIxGDf4tknQ0-50">
          <mxGeometry relative="1" as="geometry" />
        </mxCell>
        <mxCell id="5qImYblmfIxGDf4tknQ0-32" value="Отслеживание местоположения и состояния" style="ellipse;whiteSpace=wrap;html=1;fontSize=20;" vertex="1" parent="1">
          <mxGeometry x="-1045" y="-530" width="350" height="110" as="geometry" />
        </mxCell>
        <mxCell id="5qImYblmfIxGDf4tknQ0-33" value="Удаление оборудования из системы" style="ellipse;whiteSpace=wrap;html=1;fontSize=20;" vertex="1" parent="1">
          <mxGeometry x="-340" y="-680" width="250" height="70" as="geometry" />
        </mxCell>
        <mxCell id="5qImYblmfIxGDf4tknQ0-34" value="Просмотр истории изменений" style="ellipse;whiteSpace=wrap;html=1;fontSize=20;" vertex="1" parent="1">
          <mxGeometry x="-340" y="-780" width="250" height="70" as="geometry" />
        </mxCell>
        <mxCell id="5qImYblmfIxGDf4tknQ0-35" value="Генерация регулярных отчетов" style="ellipse;whiteSpace=wrap;html=1;fontSize=20;" vertex="1" parent="1">
          <mxGeometry x="-330" y="-870" width="250" height="70" as="geometry" />
        </mxCell>
        <mxCell id="5qImYblmfIxGDf4tknQ0-36" value="Изменение параметров оборудования" style="ellipse;whiteSpace=wrap;html=1;fontSize=20;" vertex="1" parent="1">
          <mxGeometry x="-340" y="-960" width="250" height="70" as="geometry" />
        </mxCell>
        <mxCell id="5qImYblmfIxGDf4tknQ0-37" value="Назначение прав доступа" style="ellipse;whiteSpace=wrap;html=1;fontSize=20;" vertex="1" parent="1">
          <mxGeometry x="-340" y="-1050" width="250" height="70" as="geometry" />
        </mxCell>
        <mxCell id="5qImYblmfIxGDf4tknQ0-38" value="Отчеты и аналитика по использованию системы" style="ellipse;whiteSpace=wrap;html=1;fontSize=20;" vertex="1" parent="1">
          <mxGeometry x="-355" y="-550" width="285" height="160" as="geometry" />
        </mxCell>
        <mxCell id="5qImYblmfIxGDf4tknQ0-42" style="edgeStyle=orthogonalEdgeStyle;rounded=0;orthogonalLoop=1;jettySize=auto;html=1;entryX=0;entryY=0.5;entryDx=0;entryDy=0;curved=1;" edge="1" parent="1" source="5qImYblmfIxGDf4tknQ0-43" target="5qImYblmfIxGDf4tknQ0-33">
          <mxGeometry relative="1" as="geometry" />
        </mxCell>
        <mxCell id="5qImYblmfIxGDf4tknQ0-43" value="Удаление оборудования" style="ellipse;whiteSpace=wrap;html=1;fontSize=20;" vertex="1" parent="1">
          <mxGeometry x="-985" y="-320" width="220" height="80" as="geometry" />
        </mxCell>
        <mxCell id="5qImYblmfIxGDf4tknQ0-44" style="edgeStyle=orthogonalEdgeStyle;rounded=0;orthogonalLoop=1;jettySize=auto;html=1;entryX=0;entryY=0.5;entryDx=0;entryDy=0;curved=1;" edge="1" parent="1" source="5qImYblmfIxGDf4tknQ0-46" target="5qImYblmfIxGDf4tknQ0-49">
          <mxGeometry relative="1" as="geometry">
            <mxPoint x="-479.9999999999991" y="10" as="targetPoint" />
          </mxGeometry>
        </mxCell>
        <mxCell id="5qImYblmfIxGDf4tknQ0-45" style="edgeStyle=orthogonalEdgeStyle;rounded=0;orthogonalLoop=1;jettySize=auto;html=1;entryX=0;entryY=0.5;entryDx=0;entryDy=0;curved=1;" edge="1" parent="1" source="5qImYblmfIxGDf4tknQ0-46" target="5qImYblmfIxGDf4tknQ0-53">
          <mxGeometry relative="1" as="geometry" />
        </mxCell>
        <mxCell id="5qImYblmfIxGDf4tknQ0-46" value="Интеграция с другими системами" style="ellipse;whiteSpace=wrap;html=1;fontSize=20;" vertex="1" parent="1">
          <mxGeometry x="-980" y="-60" width="250" height="70" as="geometry" />
        </mxCell>
        <mxCell id="5qImYblmfIxGDf4tknQ0-47" style="edgeStyle=orthogonalEdgeStyle;rounded=0;orthogonalLoop=1;jettySize=auto;html=1;entryX=0;entryY=0.5;entryDx=0;entryDy=0;curved=1;" edge="1" parent="1" source="5qImYblmfIxGDf4tknQ0-48" target="5qImYblmfIxGDf4tknQ0-51">
          <mxGeometry relative="1" as="geometry" />
        </mxCell>
        <mxCell id="5qImYblmfIxGDf4tknQ0-48" value="Обновление по расписанию" style="ellipse;whiteSpace=wrap;html=1;fontSize=20;" vertex="1" parent="1">
          <mxGeometry x="-990" y="-185" width="250" height="70" as="geometry" />
        </mxCell>
        <mxCell id="5qImYblmfIxGDf4tknQ0-49" value="Интеграция с ERP" style="ellipse;whiteSpace=wrap;html=1;fontSize=20;" vertex="1" parent="1">
          <mxGeometry x="-350" y="-180" width="290" height="102.5" as="geometry" />
        </mxCell>
        <mxCell id="5qImYblmfIxGDf4tknQ0-50" value="Отслеживание местоположения и состояния оборудования" style="ellipse;whiteSpace=wrap;html=1;fontSize=20;" vertex="1" parent="1">
          <mxGeometry x="-370" y="-50" width="310" height="140" as="geometry" />
        </mxCell>
        <mxCell id="5qImYblmfIxGDf4tknQ0-51" value="&lt;span style=&quot;font-size: 20px;&quot;&gt;Автоматическое обновление ПО&lt;/span&gt;" style="ellipse;whiteSpace=wrap;html=1;" vertex="1" parent="1">
          <mxGeometry x="-355" y="-320" width="290" height="102.5" as="geometry" />
        </mxCell>
        <mxCell id="5qImYblmfIxGDf4tknQ0-52" style="edgeStyle=orthogonalEdgeStyle;rounded=0;orthogonalLoop=1;jettySize=auto;html=1;exitX=0.5;exitY=1;exitDx=0;exitDy=0;" edge="1" parent="1" source="5qImYblmfIxGDf4tknQ0-50" target="5qImYblmfIxGDf4tknQ0-50">
          <mxGeometry relative="1" as="geometry" />
        </mxCell>
        <mxCell id="5qImYblmfIxGDf4tknQ0-53" value="Интеграция с CRM" style="ellipse;whiteSpace=wrap;html=1;fontSize=20;" vertex="1" parent="1">
          <mxGeometry x="-282.5" y="140" width="172.5" height="80" as="geometry" />
        </mxCell>
        <mxCell id="5qImYblmfIxGDf4tknQ0-54" style="edgeStyle=orthogonalEdgeStyle;rounded=0;orthogonalLoop=1;jettySize=auto;html=1;entryX=0;entryY=0.5;entryDx=0;entryDy=0;curved=1;" edge="1" parent="1" source="5qImYblmfIxGDf4tknQ0-57" target="5qImYblmfIxGDf4tknQ0-43">
          <mxGeometry relative="1" as="geometry" />
        </mxCell>
        <mxCell id="5qImYblmfIxGDf4tknQ0-55" style="edgeStyle=orthogonalEdgeStyle;rounded=0;orthogonalLoop=1;jettySize=auto;html=1;curved=1;" edge="1" parent="1" source="5qImYblmfIxGDf4tknQ0-57" target="5qImYblmfIxGDf4tknQ0-48">
          <mxGeometry relative="1" as="geometry" />
        </mxCell>
        <mxCell id="5qImYblmfIxGDf4tknQ0-56" style="edgeStyle=orthogonalEdgeStyle;rounded=0;orthogonalLoop=1;jettySize=auto;html=1;entryX=0;entryY=0.5;entryDx=0;entryDy=0;curved=1;" edge="1" parent="1" source="5qImYblmfIxGDf4tknQ0-57" target="5qImYblmfIxGDf4tknQ0-46">
          <mxGeometry relative="1" as="geometry" />
        </mxCell>
        <mxCell id="5qImYblmfIxGDf4tknQ0-57" value="Администратор" style="shape=umlActor;verticalLabelPosition=bottom;verticalAlign=top;html=1;outlineConnect=0;fontSize=22;" vertex="1" parent="1">
          <mxGeometry x="-1380" y="-215" width="80" height="130" as="geometry" />
        </mxCell>
        <mxCell id="5qImYblmfIxGDf4tknQ0-58" style="edgeStyle=orthogonalEdgeStyle;rounded=0;orthogonalLoop=1;jettySize=auto;html=1;entryX=0;entryY=0.5;entryDx=0;entryDy=0;curved=1;" edge="1" parent="1" source="5qImYblmfIxGDf4tknQ0-60" target="5qImYblmfIxGDf4tknQ0-32">
          <mxGeometry relative="1" as="geometry">
            <mxPoint x="-1007.5000000000045" y="-417.5" as="targetPoint" />
            <Array as="points">
              <mxPoint x="-1070" y="-348" />
              <mxPoint x="-1070" y="-475" />
            </Array>
          </mxGeometry>
        </mxCell>
        <mxCell id="5qImYblmfIxGDf4tknQ0-59" style="edgeStyle=orthogonalEdgeStyle;rounded=0;orthogonalLoop=1;jettySize=auto;html=1;entryX=0;entryY=0.5;entryDx=0;entryDy=0;curved=1;" edge="1" parent="1" source="5qImYblmfIxGDf4tknQ0-60" target="5qImYblmfIxGDf4tknQ0-43">
          <mxGeometry relative="1" as="geometry" />
        </mxCell>
        <mxCell id="5qImYblmfIxGDf4tknQ0-60" value="Технический персонал" style="shape=umlActor;verticalLabelPosition=bottom;verticalAlign=top;html=1;outlineConnect=0;fontSize=22;" vertex="1" parent="1">
          <mxGeometry x="-1380" y="-413" width="80" height="130" as="geometry" />
        </mxCell>
        <mxCell id="5qImYblmfIxGDf4tknQ0-61" value="Системные актёры" style="text;html=1;align=center;verticalAlign=middle;whiteSpace=wrap;rounded=0;fontSize=18;" vertex="1" parent="1">
          <mxGeometry x="-1450" y="-1410" width="220" height="30" as="geometry" />
        </mxCell>
        <mxCell id="5qImYblmfIxGDf4tknQ0-62" value="Система контроля и учета оборудования" style="text;html=1;align=center;verticalAlign=middle;whiteSpace=wrap;rounded=0;fontSize=40;" vertex="1" parent="1">
          <mxGeometry x="-925" y="-1550" width="790" height="30" as="geometry" />
        </mxCell>
      </root>
    </mxGraphModel>
  </diagram>
</mxfile>
